<svg xmlns="http://www.w3.org/2000/svg" width="132" height="32" fill="none"><path fill="#0F1F04" d="M100.83 26.642c0 3.164-.458 3.586-2.454 4.768v.169h11.268v-.169c-1.996-1.181-2.453-1.603-2.453-4.768V.06c-2.911.886-5.863 1.392-8.815 1.603v.169l.25.183c1.637 1.199 2.204 1.614 2.204 5.555v19.072z"/><path fill="#0F1F04" fill-rule="evenodd" d="M89.297 27.528h-.042c-1.081 1.56-3.617 4.43-7.318 4.43-3.41 0-5.53-2.11-5.53-4.979 0-4.304 5.24-6.92 12.931-8.945l.084-3.333c.041-.675-.209-3.545-2.454-3.545-3.118 0-4.2 6.414-4.366 7.51l-4.615-2.784c.029-.042.065-.1.11-.17.668-1.059 3.195-5.062 9.703-5.062 6.528 0 7.733 4.093 7.65 7.3l-.208 10c-.041.717.333 1.392 1.082 1.392 1.08 0 1.746-1.266 1.87-1.561l.208.042C98.236 28.37 97.031 32 93.163 32c-3.875 0-3.868-3.616-3.867-4.429v-.043zm-.125-.633.166-8.439c-4.698 1.435-6.32 3.587-6.32 6.71 0 2.742 1.04 3.839 2.495 3.839 1.58 0 2.786-1.013 3.659-2.11z" clip-rule="evenodd"/><path fill="#0F1F04" d="M56.022 11.217h-9.989l8.744 20.373h1.991l5.268-12.375 5.268 12.375h2.032l6.14-15.49c.787-1.895 1.493-2.695 3.898-4.715v-.169h-6.927v.169l.191.164c1.548 1.333 2.506 2.158 2.506 3.372 0 .337-.083.758-.25 1.178l-3.691 9.556-4.397-10.44c-.207-.505-.331-.926-.331-1.346 0-.969.622-1.684 2.157-2.484v-.169H57.349v.169c1.41.926 2.116 1.768 2.655 3.03l1.742 4.126-3.028 7.324-4.48-10.649c-.248-.547-.373-1.01-.373-1.431 0-.968.705-1.642 2.157-2.4v-.168zm-27.104 0H23.7v20.362h5.217V11.217z"/><path fill="#0F1F04" fill-rule="evenodd" d="M122.894 27.528h-.041c-1.081 1.56-3.617 4.43-7.318 4.43-3.41 0-5.53-2.11-5.53-4.979 0-4.304 5.239-6.92 12.931-8.945l.083-3.333c.042-.675-.208-3.545-2.453-3.545-3.119 0-4.2 6.414-4.366 7.51l-4.615-2.784.109-.17c.668-1.059 3.195-5.062 9.703-5.062 6.528 0 7.734 4.093 7.651 7.3l-.208 10c-.042.717.333 1.392 1.081 1.392 1.081 0 1.746-1.266 1.871-1.561l.208.042c-.166.548-1.372 4.177-5.239 4.177-3.876 0-3.869-3.616-3.867-4.429v-.043zm-.125-.633.167-8.439c-4.699 1.435-6.32 3.587-6.32 6.71 0 2.742 1.039 3.839 2.495 3.839 1.579 0 2.785-1.013 3.659-2.11h-.001zM12.44 3.072H0V31.58h12.842c5.217 0 8.829-3.3 8.829-7.575 0-3.87-2.408-6.272-5.338-6.883 2.73-.814 4.736-3.217 4.736-6.679 0-4.072-3.21-7.371-8.628-7.371zm3.211 8.267c0 2.24-1.405 3.421-4.013 3.421h-6.22v-6.8h6.22c2.608 0 4.013 1.14 4.013 3.38zm.602 11.729c0 2.444-1.605 3.625-4.213 3.625H5.418v-7.209h6.622c2.608 0 4.213 1.14 4.213 3.584z" clip-rule="evenodd"/><path fill="#0F1F04" d="M35.192 26.285V15.493h-4.134v-4.276h4.134V4.62h5.217v6.597h3.864l1.79 4.276H40.41v9.367c0 1.833.401 2.24 2.207 2.24h2.89v4.48H40.41c-3.411 0-5.217-1.833-5.217-5.294zM23.517 2.733h5.584V8.4h-5.584V2.733z"/></svg>