<svg xmlns="http://www.w3.org/2000/svg" width="91.075" height="110.393" viewBox="0 0 91.075 110.393"><path d="M1903.92,1478.445l22.769,13.8,22.769,13.8,22.769-13.8,22.768-13.8-22.768-13.8-22.769-13.8-22.769,13.8Z" transform="translate(-1903.92 -1395.65)" fill="#040405"/><path d="M1994.965,1303.426l-45.507-27.582-45.536,27.6h0v55.2l22.769-13.8,22.769-13.8.028-.017,22.74,13.781,22.769,13.8v-55.2Z" transform="translate(-1903.92 -1275.844)" fill="#040405"/><g transform="translate(13.011 15.771)"><path d="M1977.7,1365.271l-32.527-19.712,32.527-19.714,32.526,19.714Z" transform="translate(-1945.171 -1325.845)" fill="#de2356"/><path d="M1977.7,1450.846v39.426l-16.263-9.855-16.264-9.857,16.264-9.856Z" transform="translate(-1945.171 -1411.419)" fill="#ffc200"/><path d="M2048.3,1450.846v39.426l16.264-9.855,16.263-9.857-16.263-9.856Z" transform="translate(-2015.77 -1411.419)" fill="#1288c3"/><path d="M1945.171,1388.343l16.264,9.857,16.263,9.857-16.263,9.856-16.264,9.857v-39.427Z" transform="translate(-1945.171 -1368.63)" fill="#6ab484"/><path d="M2080.824,1388.266l-16.264,9.857-16.262,9.857,16.262,9.856,16.264,9.857v-39.427Z" transform="translate(-2015.77 -1368.578)" fill="#825288"/></g></svg>