<?xml version="1.0" encoding="utf-8"?>
<!-- Generator: Adobe Illustrator 25.2.1, SVG Export Plug-In . SVG Version: 6.00 Build 0)  -->
<svg version="1.1" id="Camada_1" xmlns="http://www.w3.org/2000/svg" xmlns:xlink="http://www.w3.org/1999/xlink" x="0px" y="0px"
	 viewBox="0 0 99 105.8" style="enable-background:new 0 0 99 105.8;" xml:space="preserve">
<style type="text/css">
	.st0{fill:none;stroke:#FFFFFF;stroke-width:5.5;stroke-linecap:round;stroke-linejoin:round;}
</style>
<path class="st0" d="M36.7,88.7C12.9,95.9,12.9,76.8,3.3,74.4 M70.1,103V84.6c0.4-4.6-1.3-9.1-4.5-12.4c15-1.7,30.7-7.3,30.7-33.4
	c0-6.7-2.6-13.1-7.1-17.9c2.2-5.8,2-12.3-0.4-18c0,0-5.6-1.7-18.6,7.1c-10.9-3-22.4-3-33.4,0c-13-8.7-18.6-7.1-18.6-7.1
	c-2.4,5.7-2.6,12.2-0.4,18c-4.6,4.9-7.2,11.3-7.2,18c0,25.8,15.7,31.5,30.7,33.4c-3.2,3.3-4.8,7.7-4.5,12.3V103"/>
</svg>
