<svg width="192px" height="138px" viewBox="0 0 192 138" version="1.1" xmlns="http://www.w3.org/2000/svg" xmlns:xlink="http://www.w3.org/1999/xlink">
    <g id="Pages" stroke="none" stroke-width="1" fill="none" fill-rule="evenodd" stroke-linecap="round" stroke-linejoin="round">
        <g id="Footer" transform="translate(-375, -170)" stroke="#FFFFFE" stroke-width="2">
            <g id="Group-46" transform="translate(375, 170)">
                <polygon id="Stroke-1" points="9.89885976 45.9610552 182.100339 45.9610552 182.100339 40.9517973 9.89885976 40.9517973"></polygon>
                <polygon id="Stroke-2" points="9.89885976 40.9517674 182.100339 40.9517674 182.100339 30.640956 9.89885976 30.640956"></polygon>
                <polygon id="Stroke-3" points="0 24.3949253 192 24.3949253 187.080902 30.6404575 4.97913066 30.6404575"></polygon>
                <polygon id="Stroke-4" points="9.89885976 24.3949253 182.10074 24.3949253 182.10074 9.95861281 121.301724 9.95861281 121.301724 20.3877742 70.6972748 20.3877742 70.6972748 9.95861281 9.89885976 9.95861281"></polygon>
                <polygon id="Stroke-5" points="4.9205099 4.71412055 70.6972748 4.71412055 70.6972748 9.95861281 9.89885976 9.95861281"></polygon>
                <polygon id="Stroke-6" points="121.301724 4.71412055 187.080902 4.71412055 182.10074 9.95861281 121.301724 9.95861281"></polygon>
                <polygon id="Stroke-7" points="70.6972748 20.3877742 121.302125 20.3877742 121.302125 4.59646844 70.6972748 4.59646844"></polygon>
                <polygon id="Stroke-8" points="74.7966236 4.59646844 117.201975 4.59646844 117.201975 0 74.7966236 0"></polygon>
                <polygon id="Stroke-9" points="74.6207413 16.204145 117.379459 16.204145 117.379459 8.77987828 74.6207413 8.77987828"></polygon>
                <polygon id="Stroke-10" points="9.89885976 40.9517674 14.9948415 40.9517674 14.9948415 30.640956 9.89885976 30.640956"></polygon>
                <polygon id="Stroke-11" points="20.0900225 40.9517674 25.1860042 40.9517674 25.1860042 30.640956 20.0900225 30.640956"></polygon>
                <polygon id="Stroke-12" points="30.2823864 40.9517674 35.3775574 40.9517674 35.3775574 30.640956 30.2823864 30.640956"></polygon>
                <polygon id="Stroke-13" points="40.4735491 40.9517674 45.5695309 40.9517674 45.5695309 30.640956 40.4735491 30.640956"></polygon>
                <polygon id="Stroke-14" points="50.6651123 40.9517674 55.7606836 40.9517674 55.7606836 30.640956 50.6651123 30.640956"></polygon>
                <polygon id="Stroke-15" points="60.8570758 40.9517674 65.9518363 40.9517674 65.9518363 30.640956 60.8570758 30.640956"></polygon>
                <polygon id="Stroke-16" points="71.0482385 40.9517674 76.1442203 40.9517674 76.1442203 30.640956 71.0482385 30.640956"></polygon>
                <polygon id="Stroke-17" points="81.2397016 40.9517674 86.3352729 40.9517674 86.3352729 30.640956 81.2397016 30.640956"></polygon>
                <polygon id="Stroke-18" points="91.4317652 40.9517674 96.5269361 40.9517674 96.5269361 30.640956 91.4317652 30.640956"></polygon>
                <polygon id="Stroke-19" points="101.624329 40.9517674 106.7191 40.9517674 106.7191 30.640956 101.624329 30.640956"></polygon>
                <polygon id="Stroke-20" points="111.81389 40.9517674 116.911083 40.9517674 116.911083 30.640956 111.81389 30.640956"></polygon>
                <polygon id="Stroke-21" points="122.006455 40.9517674 127.102026 40.9517674 127.102026 30.640956 122.006455 30.640956"></polygon>
                <polygon id="Stroke-22" points="132.199019 40.9517674 137.293779 40.9517674 137.293779 30.640956 132.199019 30.640956"></polygon>
                <polygon id="Stroke-23" points="142.389581 40.9517674 147.486774 40.9517674 147.486774 30.640956 142.389581 30.640956"></polygon>
                <polygon id="Stroke-24" points="152.581144 40.9517674 157.676315 40.9517674 157.676315 30.640956 152.581144 30.640956"></polygon>
                <polygon id="Stroke-25" points="162.773708 40.9517674 167.868879 40.9517674 167.868879 30.640956 162.773708 30.640956"></polygon>
                <polygon id="Stroke-26" points="172.96427 40.9517674 178.061884 40.9517674 178.061884 30.640956 172.96427 30.640956"></polygon>
                <polygon id="Stroke-27" points="9.89885976 132.814772 25.4799089 132.814772 25.4799089 51.027813 9.89885976 51.027813"></polygon>
                <polygon id="Stroke-28" points="41.2938994 132.814772 56.9324081 132.814772 56.9324081 51.027813 41.2938994 51.027813"></polygon>
                <polygon id="Stroke-29" points="72.6885386 132.814772 88.3274477 132.814772 88.3274477 51.027813 72.6885386 51.027813"></polygon>
                <polygon id="Stroke-30" points="104.141939 132.814772 119.722587 132.814772 119.722587 51.027813 104.141939 51.027813"></polygon>
                <polygon id="Stroke-31" points="135.536478 132.814772 151.115925 132.814772 151.115925 51.027813 135.536478 51.027813"></polygon>
                <polygon id="Stroke-32" points="166.930016 132.814772 182.568525 132.814772 182.568525 51.027813 166.930016 51.027813"></polygon>
                <polygon id="Stroke-33" points="6.9699841 51.0278728 28.4076033 51.0278728 28.4076033 45.9610452 6.9699841 45.9610452"></polygon>
                <polygon id="Stroke-34" points="38.3650638 51.0278728 59.8612437 51.0278728 59.8612437 45.9610452 38.3650638 45.9610452"></polygon>
                <polygon id="Stroke-35" points="69.7596029 51.0278728 91.2561832 51.0278728 91.2561832 45.9610452 69.7596029 45.9610452"></polygon>
                <polygon id="Stroke-36" points="101.211902 51.0278728 122.649821 51.0278728 122.649821 45.9610452 101.211902 45.9610452"></polygon>
                <polygon id="Stroke-37" points="132.606441 51.0278728 154.04396 51.0278728 154.04396 45.9610452 132.606441 45.9610452"></polygon>
                <polygon id="Stroke-38" points="164.001981 51.0278728 185.498562 51.0278728 185.498562 45.9610452 164.001981 45.9610452"></polygon>
                <polygon id="Stroke-39" points="6.9699841 138 28.4076033 138 28.4076033 132.814772 6.9699841 132.814772"></polygon>
                <polygon id="Stroke-40" points="38.3650638 138 59.8612437 138 59.8612437 132.814772 38.3650638 132.814772"></polygon>
                <polygon id="Stroke-41" points="69.7596029 138 91.2561832 138 91.2561832 132.814772 69.7596029 132.814772"></polygon>
                <polygon id="Stroke-42" points="101.211902 138 122.649821 138 122.649821 132.814772 101.211902 132.814772"></polygon>
                <polygon id="Stroke-43" points="132.606441 138 154.04396 138 154.04396 132.814772 132.606441 132.814772"></polygon>
                <polygon id="Stroke-44" points="164.001981 138 185.498562 138 185.498562 132.814772 164.001981 132.814772"></polygon>
                <polygon id="Stroke-45" points="39.9471035 20.3877742 70.6972748 14.0245899 70.6972748 20.3877742 121.301724 20.3877742 121.301724 14.0245899 152.054598 20.3877742 152.054598 24.3949253 39.9471035 24.3949253"></polygon>
            </g>
        </g>
    </g>
</svg>