<?xml version="1.0" encoding="UTF-8" standalone="no"?>
<!DOCTYPE svg PUBLIC "-//W3C//DTD SVG 1.1//EN" "http://www.w3.org/Graphics/SVG/1.1/DTD/svg11.dtd">
<svg width="100%" height="100%" viewBox="0 0 99 106" version="1.1" xmlns="http://www.w3.org/2000/svg" xmlns:xlink="http://www.w3.org/1999/xlink" xml:space="preserve" xmlns:serif="http://www.serif.com/" style="fill-rule:evenodd;clip-rule:evenodd;stroke-linecap:round;stroke-linejoin:round;">
    <path d="M36.7,88.7C12.9,95.9 12.9,76.8 3.3,74.4M70.1,103L70.1,84.6C70.5,80 68.8,75.5 65.6,72.2C80.6,70.5 96.3,64.9 96.3,38.8C96.3,32.1 93.7,25.7 89.2,20.9C91.4,15.1 91.2,8.6 88.8,2.9C88.8,2.9 83.2,1.2 70.2,10C59.3,7 47.8,7 36.8,10C23.8,1.3 18.2,2.9 18.2,2.9C15.8,8.6 15.6,15.1 17.8,20.9C13.2,25.8 10.6,32.2 10.6,38.9C10.6,64.7 26.3,70.4 41.3,72.3C38.1,75.6 36.5,80 36.8,84.6L36.8,103" style="fill:none;fill-rule:nonzero;stroke:black;stroke-width:5.5px;"/>
</svg>
