<?xml version="1.0" encoding="UTF-8" standalone="no"?>
<!DOCTYPE svg PUBLIC "-//W3C//DTD SVG 1.1//EN" "http://www.w3.org/Graphics/SVG/1.1/DTD/svg11.dtd">
<svg width="100%" height="100%" viewBox="0 0 213 250" version="1.1" xmlns="http://www.w3.org/2000/svg" xmlns:xlink="http://www.w3.org/1999/xlink" xml:space="preserve" xmlns:serif="http://www.serif.com/" style="fill-rule:evenodd;clip-rule:evenodd;stroke-linejoin:round;stroke-miterlimit:2;">
    <g transform="matrix(1,0,0,1,-80.654,-98.49)">
        <path d="M193.459,100.283L287.186,156.483C290.977,158.756 293.305,162.863 293.307,167.283L293.307,279.683C293.306,284.105 290.978,288.214 287.186,290.488L193.459,346.688C189.477,349.075 184.485,349.075 180.503,346.688L86.774,290.5C82.982,288.226 80.654,284.117 80.654,279.695L80.654,167.295C80.656,162.875 82.984,158.768 86.774,156.495L180.503,100.295C184.485,97.908 189.477,97.908 193.459,100.295L193.459,100.283ZM187.662,170.454L176.346,181.377L166.676,172.041L163.211,175.631L176.346,188.312L187.657,177.39L199.357,188.684L212.779,175.726L209.314,172.136L199.357,181.75L187.662,170.454ZM142.06,171.466L138.532,174.994L174.138,210.6L173.983,264.179L178.972,264.193L179.133,208.54L142.06,171.466ZM231.899,172.406L196.079,208.227L196.079,264.184L201.068,264.184L201.068,210.293L235.426,175.934L231.899,172.406ZM201.119,285.438L173.984,285.438L173.984,290.427L201.119,290.427L201.119,285.438ZM201.119,295.465L173.984,295.465L173.984,300.454L201.119,300.454L201.119,295.465ZM201.119,275.41L173.984,275.41L173.984,280.399L201.119,280.399L201.119,275.41Z" style="fill:white;"/>
    </g>
</svg>
