<svg xmlns="http://www.w3.org/2000/svg" width="138.363" height="138.363" viewBox="0 0 138.363 138.363"><circle cx="60.304" cy="60.304" r="60.304" transform="translate(0 119.053) rotate(-80.787)" fill="#040405"/><g transform="translate(26.924 23.945)"><path d="M1382.543,122.655c.194,0,.388-.011.583-.012C1382.931,122.644,1382.737,122.648,1382.543,122.655Z" transform="translate(-1341.221 -122.642)" fill="#040405"/><path d="M1385.008,356.556c-.2,0-.389,0-.584,0Q1384.715,356.559,1385.008,356.556Z" transform="translate(-1342.375 -266.154)" fill="#040405"/><path d="M1333.638,134.1a22.626,22.626,0,0,1,19.665,11.14,22.624,22.624,0,0,1,19.484-11.455,22.592,22.592,0,0,0-19.082-11.137q-.291-.005-.584,0c-.195,0-.389.008-.583.012A22.593,22.593,0,0,0,1333.638,134.1Z" transform="translate(-1311.217 -122.641)" fill="#0f519e" stroke="#0f519e" stroke-miterlimit="10" stroke-width="0.667"/><path d="M1435.123,174.066a22.624,22.624,0,0,1,19.662,11.146,22.607,22.607,0,0,0-19.847-33.747,22.624,22.624,0,0,1,.186,22.6Z" transform="translate(-1373.367 -140.325)" fill="#de1b25" stroke="#de1b25" stroke-miterlimit="10" stroke-width="0.667"/><path d="M1404.006,151.466a22.625,22.625,0,0,0-19.484,11.455l0,.007a22.592,22.592,0,0,1,.178,22.6,22.592,22.592,0,0,1,19.484-11.461h0a22.624,22.624,0,0,0-.186-22.6Z" transform="translate(-1342.436 -140.326)" fill="#5b3584" stroke="#5b3584" stroke-miterlimit="10" stroke-width="0.667"/><path d="M1447.158,247.125a22.492,22.492,0,0,1-11.27,3.122,22.624,22.624,0,0,1,.178,22.6,22.608,22.608,0,0,0,19.3-34.062A22.489,22.489,0,0,1,1447.158,247.125Z" transform="translate(-1373.95 -193.899)" fill="#ffdc00" stroke="#ffdc00" stroke-miterlimit="10" stroke-width="0.667"/><path d="M1415.8,212.885a22.5,22.5,0,0,0-11.319-2.94l0,0a22.592,22.592,0,0,1-19.485,11.458,22.591,22.591,0,0,1,19.667,11.143l0,0a22.627,22.627,0,0,0,19.48-11.461A22.5,22.5,0,0,0,1415.8,212.885Z" transform="translate(-1342.725 -176.204)" fill="#ee6b08" stroke="#ee6b08" stroke-miterlimit="10" stroke-width="0.667"/><path d="M1435.411,209.946h0l0,0Z" transform="translate(-1373.656 -176.205)" fill="#040405"/><path d="M1384.993,221.407a22.592,22.592,0,0,0,19.485-11.458l0,0A22.593,22.593,0,0,0,1384.993,221.407Z" transform="translate(-1342.725 -176.205)" fill="#fff" stroke="#fff" stroke-miterlimit="10" stroke-width="0.667"/><path d="M1374.2,309.237a22.624,22.624,0,0,1-19.665-11.14,22.625,22.625,0,0,1-19.483,11.454,22.592,22.592,0,0,0,19.082,11.138c.194,0,.388,0,.584,0s.389-.005.584-.012A22.593,22.593,0,0,0,1374.2,309.237Z" transform="translate(-1312.083 -230.288)" fill="#ed7914" stroke="#ed7914" stroke-miterlimit="10" stroke-width="0.667"/><path d="M1404.662,250.747h0a22.593,22.593,0,0,1-19.665-11.146,22.592,22.592,0,0,1,.185,22.6l0,.006a22.623,22.623,0,0,0,19.665,11.14,22.624,22.624,0,0,0-.178-22.6Z" transform="translate(-1342.725 -194.399)" fill="#ffc200" stroke="#ffc200" stroke-miterlimit="10" stroke-width="0.667"/><path d="M1435.882,268.437l0,0v0Z" transform="translate(-1373.944 -212.089)" fill="#040405"/><path d="M1384.993,239.6a22.593,22.593,0,0,0,19.665,11.146v0A22.591,22.591,0,0,0,1384.993,239.6Z" transform="translate(-1342.725 -194.398)" fill="#fff"/><path d="M1298.693,251.562a22.626,22.626,0,0,1-19.661-11.146,22.607,22.607,0,0,0,19.847,33.746,22.624,22.624,0,0,1-.186-22.6Z" transform="translate(-1275.911 -194.899)" fill="#54a54f" stroke="#54a54f" stroke-miterlimit="10" stroke-width="0.667"/><path d="M1349.58,262.2a22.593,22.593,0,0,1-.178-22.6,22.591,22.591,0,0,1-19.484,11.461h0a22.625,22.625,0,0,0,.186,22.6,22.625,22.625,0,0,0,19.483-11.454Z" transform="translate(-1307.133 -194.399)" fill="#88b21b" stroke="#88b21b" stroke-miterlimit="10" stroke-width="0.667"/><path d="M1385.458,298.081h0l0,.006,0-.006Z" transform="translate(-1343.008 -230.279)" fill="#040405"/><path d="M1380.324,239.6a22.593,22.593,0,0,0,.178,22.6h.007A22.593,22.593,0,0,0,1380.324,239.6Z" transform="translate(-1338.055 -194.399)" fill="#fff" stroke="#fff" stroke-miterlimit="10" stroke-width="0.667"/><path d="M1286.952,178a22.493,22.493,0,0,1,11.27-3.122,22.627,22.627,0,0,1-.178-22.6,22.607,22.607,0,0,0-19.3,34.062A22.49,22.49,0,0,1,1286.952,178Z" transform="translate(-1275.623 -140.826)" fill="#3f3483" stroke="#3f3483" stroke-miterlimit="10" stroke-width="0.667"/><path d="M1348.639,163.426l0-.007a22.626,22.626,0,0,0-19.665-11.14,22.627,22.627,0,0,0,.178,22.6h0a22.591,22.591,0,0,1,19.665,11.146A22.593,22.593,0,0,1,1348.639,163.426Z" transform="translate(-1306.556 -140.824)" fill="#263887" stroke="#263887" stroke-miterlimit="10" stroke-width="0.667"/><path d="M1384.517,181.112h0l0-.007,0,.007Z" transform="translate(-1342.43 -158.51)" fill="#040405"/><path d="M1379.85,181.122a22.592,22.592,0,0,0,.186,22.6,22.592,22.592,0,0,0-.178-22.6h-.007Z" transform="translate(-1337.767 -158.521)" fill="#fff" stroke="#fff" stroke-miterlimit="10" stroke-width="0.667"/><path d="M1303.177,210.764l0,0a22.625,22.625,0,0,0-19.48,11.461,22.625,22.625,0,0,0,19.661,11.146l0,0a22.591,22.591,0,0,1,19.485-11.458A22.592,22.592,0,0,1,1303.177,210.764Z" transform="translate(-1280.575 -176.705)" fill="#276db5" stroke="#276db5" stroke-miterlimit="10" stroke-width="0.667"/><path d="M1334.1,210.761l0,0,0,0Z" transform="translate(-1311.5 -176.705)" fill="#040405"/><path d="M1353.771,221.906a22.591,22.591,0,0,0-19.665-11.146l0,0A22.592,22.592,0,0,0,1353.771,221.906Z" transform="translate(-1311.503 -176.704)" fill="#fff" stroke="#fff" stroke-miterlimit="10" stroke-width="0.667"/><path d="M1334.569,269.252h0l0,0Z" transform="translate(-1311.788 -212.589)" fill="#040405"/><path d="M1354.06,239.6a22.591,22.591,0,0,0-19.485,11.458l0,0A22.591,22.591,0,0,0,1354.06,239.6Z" transform="translate(-1311.792 -194.399)" fill="#fff" stroke="#fff" stroke-miterlimit="10" stroke-width="0.667"/></g></svg>