<svg xmlns="http://www.w3.org/2000/svg" width="183.578" height="183.382" viewBox="0 0 183.578 183.382"><g transform="translate(-838.939 -689.874)"><g transform="translate(838.939 689.874)"><g transform="translate(0.185 47.645)"><path d="M392.953,215.706c0-.031,0-.06,0-.091q0-19.51,0-39.02,0,19.511,0,39.02C392.951,215.647,392.953,215.676,392.953,215.706Z" transform="translate(-301.124 -131.531)" fill="none"/><path d="M525.577,204.258c0,.518-.03,1.04-.048,1.558a1.69,1.69,0,0,0-.237.146q-21.466,18.172-42.918,36.363a11.138,11.138,0,0,0-2.569,2.377h-.284c-.013-.66-.043-1.326-.043-1.986q0-43.071,0-86.136c0-.57-.026-1.14-.039-1.7.059-.118.118-.237.176-.355q7.373-5.889,14.737-11.786c4.5-3.612,8.96-7.279,13.49-10.852a11.939,11.939,0,0,1,7.507-2.788,13.265,13.265,0,0,1,5.54,1.3,7.523,7.523,0,0,1,4.715,7.4Q525.533,171.029,525.577,204.258Z" transform="translate(-342.208 -108.967)" fill="#eb4736"/><path d="M310.273,216.142c-.029-.01-.342-26.539-.344-39.546-.079-.228-91.561,76.258-91.747,76.725q.015,3.121.029,6.243a9.68,9.68,0,0,0,7.249,7.615c.631.17,16.483.047,23.781.047C250.741,265.308,310.273,216.142,310.273,216.142Z" transform="translate(-218.108 -131.531)" fill="#5b69b0"/><path d="M438.386,179.906c0-.568-.026-1.136-.04-1.7q-7.26,6.1-14.522,12.209-9.8,8.265-19.58,16.549-5.081,4.3-10.149,8.617a2.877,2.877,0,0,1-1.149.8c0,.031,0,.06,0,.091a.884.884,0,0,1-.012.149q.006,25.706.01,51.414h45.487c-.015-.661-.044-1.324-.044-1.988Q438.387,222.975,438.386,179.906Z" transform="translate(-301.12 -132.294)" fill="#7a5ea7"/><path d="M264.032,136.413c-.017.083-45.918,38.455-45.991,38.517,0-2.853.225-71.75.225-76.576v-.2c.85-4.23,4.4-7.212,9.4-7.3q6.167-.109,12.338-.1c4.88,0,9.756.038,14.637.079a10.238,10.238,0,0,1,6.5,2.481,7.778,7.778,0,0,1,2.9,6.348c-.008,1.889-.117,3.78-.117,5.67C263.919,115.367,264,136.089,264.032,136.413Z" transform="translate(-218.041 -90.755)" fill="#e5b14e"/><path d="M218.37,248.525c.6-.409,1.191-.85,1.76-1.3-.617.506-1.237.98-1.864,1.415-.073.053-.152.1-.225.157.073-.061.152-.123.225-.183C218.3,248.581,218.334,248.556,218.37,248.525Z" transform="translate(-218.041 -165.08)" fill="#e5b14e"/><path d="M264.044,214.924c-6.016,5.122-45.482,38.465-45.666,38.929h-.044a.232.232,0,0,1-.056,0h-.027l-.068-.013s-.008,0-.013,0h-.008v-38.1c.073-.061,45.266-38.215,45.839-38.353C263.993,187.127,264.022,212.472,264.044,214.924Z" transform="translate(-218.098 -131.905)" fill="#d4cc56"/><path d="M277.617,302.792H338.17q0-25.707-.01-51.414C335.588,253.514,279.117,300.875,277.617,302.792Z" transform="translate(-246.341 -167.054)" fill="#554f9f"/><path d="M525.928,305.394c0,5.119-5.552,8.729-10.884,8.729h-34.9a11.136,11.136,0,0,1,2.569-2.377q21.438-18.2,42.918-36.363a1.7,1.7,0,0,1,.237-.146C525.882,281.956,525.936,295.447,525.928,305.394Z" transform="translate(-342.543 -178.388)" fill="#de5ca1"/><path d="M394.1,192.323q5.075-4.31,10.149-8.617,9.787-8.281,19.58-16.549,7.252-6.117,14.522-12.209c.06-.118.12-.234.177-.354-.026-.518-.079-1.035-.077-1.555,0-5.155,0-10.31.03-15.467a6.784,6.784,0,0,0-2.25-5.312,12.11,12.11,0,0,0-15.4-.483c-4.472,3.565-8.9,7.177-13.369,10.751q-7.245,5.8-14.515,11.576,0,19.511,0,39.02A2.878,2.878,0,0,0,394.1,192.323Z" transform="translate(-301.124 -109.039)" fill="#66a2d7"/><path d="M351.431,154.134c-4.928,4.139-45.612,37.759-45.875,37.955-.022-2.453.028-37.741.045-37.824q8.6-6.867,17.189-13.746c3.621-2.9,7.225-5.82,10.853-8.712a12.309,12.309,0,0,1,14.44-.311c1.7,1.221,3,2.81,3,4.926C351.078,142.39,351.3,148.434,351.431,154.134Z" transform="translate(-259.609 -109.069)" fill="#67b765"/></g><g transform="translate(0)"><path d="M17.226,0H28.975A17.225,17.225,0,0,1,46.2,17.225v4.252A17.226,17.226,0,0,1,28.974,38.7H17.224A17.224,17.224,0,0,1,0,21.479V17.226A17.226,17.226,0,0,1,17.226,0Z" fill="#e5b14e"/></g></g></g></svg>