<svg xmlns="http://www.w3.org/2000/svg" xmlns:xlink="http://www.w3.org/1999/xlink" width="169.117" height="198.817" viewBox="0 0 169.117 198.817"><defs><linearGradient id="a" x1="0.5" y1="1" x2="0.5" gradientUnits="objectBoundingBox"><stop offset="0" stop-color="#92bd94"/><stop offset="0.2" stop-color="#6b99ca"/><stop offset="0.4" stop-color="#9b7aa3"/><stop offset="0.6" stop-color="#cf6784"/><stop offset="0.8" stop-color="#dd9c3e"/><stop offset="1" stop-color="#f2d201"/></linearGradient></defs><path d="M267.638,122.122,193.1,77.427a10.017,10.017,0,0,0-10.3,0l-74.539,44.7a10.019,10.019,0,0,0-4.868,8.593V220.1a10.021,10.021,0,0,0,4.868,8.593L182.8,273.391a10.017,10.017,0,0,0,10.3,0L267.638,228.7a10.021,10.021,0,0,0,4.868-8.593V130.714A10.02,10.02,0,0,0,267.638,122.122Zm-17.681,86.063a7.347,7.347,0,0,1-3.569,6.3l-54.661,32.776a7.346,7.346,0,0,1-7.556,0l-54.663-32.776a7.347,7.347,0,0,1-3.569-6.3V142.633a7.347,7.347,0,0,1,3.569-6.3l54.663-32.777a7.347,7.347,0,0,1,7.556,0l54.661,32.777a7.348,7.348,0,0,1,3.569,6.3Z" transform="translate(-103.389 -76)" fill="url(#a)"/></svg>