<svg xmlns="http://www.w3.org/2000/svg" width="212.654" height="250" viewBox="0 0 212.654 250"><g transform="translate(98.346 -96.49)"><g transform="translate(-179 -2)"><path d="M193.459,100.283l93.727,56.2a12.6,12.6,0,0,1,6.121,10.8v112.4a12.6,12.6,0,0,1-6.121,10.805l-93.727,56.2a12.6,12.6,0,0,1-12.956,0L86.774,290.5a12.6,12.6,0,0,1-6.12-10.805v-112.4a12.6,12.6,0,0,1,6.12-10.8l93.729-56.2a12.6,12.6,0,0,1,12.956,0Z" fill="#fff"/><g transform="translate(138.533 170.454)"><rect width="27.135" height="4.989" transform="translate(35.451 125.011)"/><rect width="27.135" height="4.989" transform="translate(35.451 114.984)"/><rect width="27.135" height="4.989" transform="translate(35.451 104.956)"/><path d="M187.816,170.67,176.5,181.593l-9.67-9.336-3.465,3.59L176.5,188.528l11.311-10.922,11.7,11.294,13.422-12.958-3.465-3.59-9.957,9.614Z" transform="translate(-138.687 -170.67)"/><path d="M142.214,171.682l-3.528,3.528,35.606,35.606-.155,53.579,4.989.014.161-55.653Z" transform="translate(-138.687 -170.67)"/><path d="M232.053,172.622l-35.82,35.821V264.4h4.989V210.509l34.358-34.359Z" transform="translate(-138.687 -170.67)"/></g></g></g></svg>