<svg xmlns="http://www.w3.org/2000/svg" width="123.677" height="123.677" viewBox="0 0 123.677 123.677"><path d="M473.677,211.838A61.839,61.839,0,1,1,411.839,150,61.839,61.839,0,0,1,473.677,211.838Z" transform="translate(-350 -150)" fill="#e83c69"/><g transform="translate(25.665 13.742)"><path d="M552.587,335.913l-3.015-11.229.754-34.29,5.275,28.261,2.261,2.11-3.015,6.557,6.029,5.275-4.522,3.316H565.4l3.014-3.316V321.67h9.044V332.6l3.014,3.316h9.044l-4.522-3.316,6.029-5.275-3.015-6.557,2.261-2.11,5.275-28.261.754,34.29-3.015,11.229h2.261c0,1.119,2.584,2.035,6.029,2.035s6.024-.918,6.029-2.035l1.507-45.519-4.522-2.336h4.522L604.587,276.3l-9.044-5.049-12.058-1.658,2.261-4.6-2.261-1.733-.754-3.391-.754-3.165-2.261-4.522L575.2,250h-4.522l-4.522,2.186-2.261,4.522-.754,3.165-.754,3.391L560.123,265l2.261,4.6-12.058,1.658-9.044,5.049-4.522,11.757h4.522l-4.522,2.336s1.507,45.518,1.507,45.519c0,1.119,2.584,2.035,6.029,2.035s6.029-.916,6.029-2.035" transform="translate(-536.761 -250)" fill="#fff"/></g></svg>