<svg xmlns="http://www.w3.org/2000/svg" width="138.423" height="138.423" viewBox="0 0 138.423 138.423"><circle cx="60.33" cy="60.33" r="60.33" transform="translate(0 119.104) rotate(-80.787)" fill="#1688c6"/><path d="M1466.649,1841.211a16.483,16.483,0,0,0-1.2-4.312c-.161-.337-.3-.67-.476-.993s-.346-.641-.555-.95a9.3,9.3,0,0,0-.65-.891,3.531,3.531,0,0,0-.8-.754,2.4,2.4,0,0,1,.028.522,4.915,4.915,0,0,1-.025.505l-.045.5-.07.5c-.085.653-.221,1.3-.348,1.917a24,24,0,0,1-1.069,3.519c-.2.549-.458,1.062-.685,1.564-.275.483-.505.966-.807,1.391a13.4,13.4,0,0,1-.881,1.216c-.151.188-.328.353-.483.528-.079.086-.158.171-.232.259s-.175.153-.26.229c-.171.152-.34.3-.5.454l-.542.392c-.088.064-.172.133-.255.2l-.288.168c-.19.113-.378.223-.555.343s-.4.193-.6.293-.373.216-.6.29-.432.158-.642.243a3.69,3.69,0,0,1-.649.238c-.231.064-.459.13-.683.205l-.335.112c-.114.035-.244.052-.364.079-.245.048-.486.107-.728.165a5.474,5.474,0,0,1-.739.155c-.517.076-1.029.163-1.541.253l-1.621.161a65.971,65.971,0,0,1-6.907.185l-.9-.012c-.3,0-.6.014-.906-.008-.609-.038-1.222-.053-1.837-.078-1.229-.006-2.476-.109-3.738-.15-.7-.013-1.4-.048-2.1-.083l.177-.065c.324-.118.641-.253.956-.395s.632-.281.946-.425a38.435,38.435,0,0,0,3.727-1.872c.605-.351,1.218-.695,1.818-1.059s1.182-.786,1.767-1.19a35.712,35.712,0,0,0,6.568-5.809l1.454-1.775c.443-.652.885-1.3,1.316-1.963a11.606,11.606,0,0,0,.6-1.05c.19-.359.382-.717.563-1.08.089-.183.187-.356.267-.548l.234-.583c.157-.388.3-.78.448-1.171a9.843,9.843,0,0,0,.372-1.217c.109-.415.208-.832.307-1.247a5.115,5.115,0,0,0,.114-.64q.047-.325.085-.651c.046-.436.113-.861.132-1.3s.006-.885,0-1.323l-.014-.656-.077-.659-.183-1.3c-.1-.428-.213-.851-.325-1.27-.058-.209-.112-.418-.176-.624l-.232-.6c-.162-.4-.309-.8-.491-1.178a16.811,16.811,0,0,0-2.773-4.016,17.4,17.4,0,0,0-1.726-1.562,16.478,16.478,0,0,0-3.854-2.275c-.349-.132-.678-.277-1.031-.385s-.694-.221-1.059-.3a9.248,9.248,0,0,0-1.086-.191,3.523,3.523,0,0,0-1.1.016,2.412,2.412,0,0,1,.382.356c.117.128.227.24.333.381l.313.391.295.407c.392.529.741,1.086,1.08,1.622a23.977,23.977,0,0,1,1.671,3.276c.237.534.407,1.083.592,1.6.137.538.307,1.046.385,1.561a13.454,13.454,0,0,1,.21,1.487c.021.241.009.482.019.715,0,.117.005.233.013.347s-.019.231-.027.346c-.018.228-.037.452-.043.672l-.118.658c-.019.108-.031.215-.045.322l-.09.321c-.059.213-.118.422-.162.632s-.157.42-.227.627c-.089.207-.118.415-.228.622s-.2.414-.293.621a3.7,3.7,0,0,1-.3.622c-.121.206-.24.412-.349.622l-.164.313c-.057.1-.139.207-.207.31-.144.205-.276.415-.409.624a5.455,5.455,0,0,1-.425.624c-.319.413-.628.832-.934,1.251l-1.056,1.241a65.94,65.94,0,0,1-4.844,4.926l-.656.615c-.22.207-.422.427-.658.623-.465.4-.917.809-1.376,1.219-.889.849-1.859,1.64-2.8,2.486-.139.129-.286.253-.427.381.007-.024.015-.049.023-.073.307-.992.6-1.988.845-3.006q.121-.508.223-1.026c.139-.686.287-1.373.412-2.063.089-.51.152-1.029.213-1.548.022-.188.045-.376.067-.564q.2-1.585.255-3.221.034-1.089,0-2.2-.05-1.66-.252-3.35l-.19-1.18-.175-1.085c-.123-.485-.253-.968-.38-1.451-.073-.278-.143-.558-.218-.835-.023-.094-.051-.189-.081-.283s-.063-.19-.1-.286c-.069-.191-.144-.382-.213-.572-.143-.38-.283-.761-.436-1.137-.078-.188-.143-.376-.233-.564l-.282-.562c-.187-.374-.382-.744-.58-1.111a9.808,9.808,0,0,0-.664-1.086c-.239-.356-.486-.707-.731-1.056a5.136,5.136,0,0,0-.4-.51q-.213-.251-.431-.5c-.148-.162-.29-.325-.435-.487s-.293-.321-.45-.474h0c-.325-.3-.659-.59-.991-.877l-.5-.424-.544-.379-1.1-.727c-.385-.21-.778-.4-1.166-.6-.195-.1-.387-.194-.583-.282l-.605-.225c-.4-.142-.8-.3-1.207-.414a16.283,16.283,0,0,0-2.444-.475l-.062-.007a10.014,10.014,0,0,0-1.146-.094c-.2-.006-.4-.008-.6-.009h-.594c-.2.013-.393.025-.588.04q-.328.024-.651.059c-.362.038-.72.087-1.074.158a16.482,16.482,0,0,0-4.258,1.377c-.329.174-.656.324-.972.517s-.626.372-.926.595c-.148.108-.3.217-.44.33s-.286.231-.422.357q-.1.091-.2.189a3.631,3.631,0,0,0-.368.419,2.255,2.255,0,0,0-.149.228h0c.095-.016.179-.03.263-.04a1.638,1.638,0,0,1,.257-.011c.173,0,.331-.011.506,0l.5.024.5.049c.656.057,1.3.166,1.93.267a23.992,23.992,0,0,1,3.561.92c.048.015.095.033.142.049.269.091.531.192.786.3.224.092.445.184.663.272.37.191.74.356,1.086.547.115.063.228.129.338.2a6.615,6.615,0,0,1,.648.4c.1.071.2.144.3.215s.2.142.3.21.189.15.279.228.179.158.269.232.178.15.268.221.161.168.241.25h0c.159.165.314.327.474.476l.414.525c.068.086.14.166.211.247l.18.281c.075.116.153.226.229.338.046.067.089.137.137.2a3.222,3.222,0,0,1,.163.29c.051.1.1.2.156.3.024.051.05.1.078.146a2.864,2.864,0,0,1,.237.437c.089.213.176.425.271.631a3.724,3.724,0,0,1,.265.639c.055.169.114.334.174.5.021.057.039.117.06.174l.02.053.106.278a1.774,1.774,0,0,1,.05.177c.015.062.029.123.045.183.058.243.128.481.2.72.016.06.034.119.052.178.023.077.043.156.064.235a2.313,2.313,0,0,1,.07.318c.1.513.207,1.021.318,1.528l.23,1.613a65.985,65.985,0,0,1,.477,6.892l.026.9c.007.227.021.452.026.68,0,.075.007.149,0,.225,0,.152,0,.305,0,.459,0,.255,0,.51,0,.765q0,.307,0,.614c.035.918.016,1.849.009,2.788q0,.415,0,.832c-.1-.216-.2-.43-.3-.643-.15-.312-.307-.619-.464-.928a38.458,38.458,0,0,0-2.029-3.644c-.376-.59-.746-1.188-1.135-1.772s-.835-1.148-1.263-1.715a35.715,35.715,0,0,0-6.082-6.316l-1.834-1.378c-.671-.416-1.342-.829-2.017-1.232a11.672,11.672,0,0,0-1.074-.55c-.366-.175-.732-.352-1.1-.516-.187-.082-.364-.171-.559-.244l-.593-.209c-.395-.14-.792-.271-1.189-.4a9.883,9.883,0,0,0-1.232-.321c-.42-.091-.841-.172-1.259-.253a5.065,5.065,0,0,0-.644-.087c-.218-.022-.436-.041-.654-.058-.437-.028-.865-.076-1.3-.077s-.884.032-1.322.055l-.655.042-.655.1-1.294.238c-.423.115-.841.249-1.254.378-.206.066-.413.129-.616.2l-.592.258c-.39.179-.784.343-1.156.54a16.347,16.347,0,0,0-2.089,1.354,16.117,16.117,0,0,0-1.806,1.586,17.39,17.39,0,0,0-1.487,1.79,16.486,16.486,0,0,0-2.11,3.947c-.116.354-.248.689-.341,1.047s-.192.7-.254,1.071a9.323,9.323,0,0,0-.145,1.094,3.529,3.529,0,0,0,.063,1.1,2.413,2.413,0,0,1,.339-.4,5.037,5.037,0,0,1,.367-.348l.376-.329.394-.312c.511-.414,1.054-.786,1.575-1.148a23.978,23.978,0,0,1,3.2-1.809c.524-.26,1.064-.452,1.575-.659.532-.16,1.033-.35,1.544-.45a13.479,13.479,0,0,1,1.477-.273c.239-.031.481-.029.714-.049.117-.008.233-.015.346-.027s.232.01.346.013c.229.008.453.018.673.014l.662.09c.108.014.216.022.323.031l.325.077c.215.05.427.1.638.135s.426.139.636.2c.211.08.419.1.631.2s.422.184.632.267a3.722,3.722,0,0,1,.634.276c.211.113.422.222.636.322l.319.151c.107.053.212.13.318.194.211.135.426.258.641.383a5.392,5.392,0,0,1,.641.4c.427.3.857.591,1.289.88l1.284,1a65.969,65.969,0,0,1,5.126,4.632l.643.63c.215.211.444.4.65.631.414.448.848.882,1.276,1.323.886.852,1.717,1.788,2.6,2.688s1.754,1.834,2.658,2.757c.154.159.311.316.468.474-.489-.27-.979-.538-1.473-.8q-.927-.447-1.871-.862c-.628-.282-1.262-.548-1.9-.816-.316-.136-.64-.255-.966-.368s-.652-.229-.98-.34a38.6,38.6,0,0,0-4-1.192c-.681-.16-1.363-.329-2.05-.475s-1.4-.239-2.1-.345a35.7,35.7,0,0,0-8.764-.273l-2.275.294c-.77.171-1.539.344-2.3.527a11.692,11.692,0,0,0-1.153.356c-.385.131-.77.26-1.15.4-.191.072-.38.131-.571.215l-.57.264c-.38.176-.756.36-1.129.546a9.772,9.772,0,0,0-1.105.631c-.364.228-.722.464-1.078.7a5.18,5.18,0,0,0-.522.387q-.257.2-.508.416c-.333.285-.673.55-.988.856s-.61.64-.908.963l-.44.487-.4.532-.76,1.074c-.222.378-.428.765-.633,1.147-.1.192-.206.381-.3.575l-.245.6c-.154.4-.322.793-.45,1.194a16.789,16.789,0,0,0-.735,4.824,17.416,17.416,0,0,0,.186,2.32,16.473,16.473,0,0,0,1.246,4.3c.164.335.3.667.487.988s.353.637.566.944a9.3,9.3,0,0,0,.66.884,3.527,3.527,0,0,0,.814.744,2.418,2.418,0,0,1-.035-.521,5.014,5.014,0,0,1,.019-.506l.039-.5.064-.5c.077-.654.206-1.3.326-1.921a23.99,23.99,0,0,1,1.029-3.531c.194-.552.446-1.067.667-1.572.269-.486.495-.972.791-1.4a13.311,13.311,0,0,1,.866-1.226c.149-.19.324-.357.476-.534.078-.087.156-.173.229-.262s.173-.155.257-.232c.17-.154.337-.3.491-.46l.537-.4c.087-.066.17-.135.253-.2l.286-.172c.189-.115.375-.227.551-.349s.4-.2.6-.3.37-.221.592-.3.431-.163.639-.251a3.72,3.72,0,0,1,.647-.245c.23-.067.457-.136.68-.213l.334-.115c.114-.036.243-.055.363-.083.245-.051.485-.113.726-.174a5.4,5.4,0,0,1,.737-.163c.515-.082,1.027-.176,1.537-.271l1.62-.179a65.788,65.788,0,0,1,6.9-.265l.9,0c.3,0,.6-.021.906,0,.609.031,1.223.039,1.837.057,1.229-.009,2.478.08,3.74.107,1.262.01,2.536.087,3.828.117.645.019,1.3.022,1.951.026l.192,0c-.539.164-1.076.335-1.614.508-.329.1-.651.223-.973.35s-.644.251-.965.38a38.525,38.525,0,0,0-3.808,1.7c-.621.323-1.249.638-1.865.975s-1.217.73-1.82,1.107a35.721,35.721,0,0,0-6.827,5.5l-1.534,1.706c-.473.631-.944,1.263-1.405,1.9a11.712,11.712,0,0,0-.643,1.021c-.206.35-.414.7-.611,1.053-.1.179-.2.348-.293.536l-.26.572c-.174.381-.339.765-.5,1.149a9.833,9.833,0,0,0-.428,1.2c-.128.41-.246.822-.363,1.232a4.961,4.961,0,0,0-.143.634q-.063.322-.115.646c-.067.433-.152.855-.192,1.292s-.046.884-.061,1.322l-.016.656.047.662.123,1.31c.078.431.174.859.266,1.283.048.211.092.423.146.631l.2.613c.144.4.272.811.436,1.2a16.334,16.334,0,0,0,1.165,2.2,16.169,16.169,0,0,0,1.421,1.939,17.286,17.286,0,0,0,1.652,1.639,16.482,16.482,0,0,0,3.745,2.45c.342.147.665.308,1.013.432s.683.253,1.045.347a9.386,9.386,0,0,0,1.076.24,3.537,3.537,0,0,0,1.1.035,2.441,2.441,0,0,1-.365-.373c-.111-.134-.216-.251-.315-.4l-.295-.4-.276-.42c-.367-.546-.69-1.119-1-1.67a24,24,0,0,1-1.52-3.349c-.212-.544-.356-1.1-.518-1.627-.113-.544-.258-1.059-.313-1.577a13.4,13.4,0,0,1-.141-1.5c-.01-.241.013-.482.014-.715,0-.117.006-.233,0-.348s.03-.23.043-.344c.029-.227.058-.45.073-.669l.148-.652c.024-.107.041-.213.06-.319l.106-.317c.068-.21.137-.417.19-.624s.176-.412.256-.616c.1-.2.137-.409.256-.611s.22-.4.321-.607a3.681,3.681,0,0,1,.331-.607c.131-.2.258-.4.377-.6l.178-.305c.063-.1.149-.2.221-.3.153-.2.294-.4.438-.6a5.434,5.434,0,0,1,.453-.6c.338-.4.665-.8.99-1.207l1.112-1.191a65.915,65.915,0,0,1,5.066-4.7l.684-.584c.23-.2.442-.407.686-.592.483-.374.953-.767,1.431-1.154.927-.807,1.932-1.553,2.907-2.355.935-.791,1.921-1.542,2.891-2.333q-.121.289-.242.579c-.135.317-.252.641-.363.968s-.226.653-.335.981a38.439,38.439,0,0,0-1.173,4c-.157.682-.323,1.365-.466,2.052s-.232,1.4-.336,2.1a35.689,35.689,0,0,0-.232,8.765l.305,2.274c.174.769.351,1.537.538,2.3a11.7,11.7,0,0,0,.362,1.151c.132.384.263.769.406,1.148.073.19.133.38.218.57l.267.569c.177.379.363.754.551,1.126a9.8,9.8,0,0,0,.636,1.1c.23.363.467.719.7,1.075a5.057,5.057,0,0,0,.39.52q.205.256.417.506c.287.332.553.67.86.984s.643.607.968.9l.49.438.534.393,1.078.755c.379.22.767.425,1.15.628.193.1.382.2.576.3l.6.241c.4.152.794.318,1.2.445a16.761,16.761,0,0,0,4.828.712,17.348,17.348,0,0,0,2.319-.2,16.489,16.489,0,0,0,4.292-1.266c.334-.165.665-.307.986-.492s.635-.356.941-.571a9.252,9.252,0,0,0,.88-.664,3.547,3.547,0,0,0,.74-.817,2.438,2.438,0,0,1-.521.037c-.174,0-.331,0-.506-.017l-.5-.037-.5-.062c-.654-.074-1.3-.2-1.923-.317a23.952,23.952,0,0,1-3.536-1.012c-.552-.191-1.069-.441-1.575-.66-.487-.267-.974-.49-1.4-.784a13.367,13.367,0,0,1-1.231-.861c-.19-.148-.358-.322-.536-.474-.087-.078-.174-.156-.262-.228s-.156-.172-.234-.256c-.155-.168-.306-.335-.462-.489l-.4-.536c-.066-.087-.136-.17-.2-.252l-.173-.285c-.116-.188-.229-.374-.352-.549s-.2-.4-.3-.594-.223-.369-.3-.591-.165-.429-.254-.638a3.725,3.725,0,0,1-.248-.646c-.068-.229-.138-.456-.217-.679l-.117-.334c-.036-.113-.056-.242-.085-.363-.052-.245-.116-.485-.177-.725a5.473,5.473,0,0,1-.167-.736c-.085-.515-.18-1.026-.278-1.536l-.187-1.619a65.88,65.88,0,0,1-.3-6.9l0-.9c0-.3-.024-.6-.007-.906.028-.61.034-1.223.048-1.838-.013-1.15.057-2.316.083-3.5.438.894.9,1.779,1.425,2.64.36.6.714,1.207,1.088,1.8s.8,1.17,1.218,1.748a35.733,35.733,0,0,0,5.915,6.472l1.8,1.425c.659.433,1.32.863,1.984,1.284a11.78,11.78,0,0,0,1.059.578c.362.184.723.371,1.089.545.185.086.36.18.553.259l.587.224c.391.15.784.291,1.178.428a9.835,9.835,0,0,0,1.223.353c.417.1.836.194,1.252.286a5.136,5.136,0,0,0,.641.1q.326.042.652.074c.436.04.863.1,1.3.112s.885-.009,1.323-.021l.656-.025.658-.088,1.3-.2c.426-.1.847-.227,1.264-.346.208-.062.417-.118.621-.186l.6-.242c.394-.168.793-.322,1.17-.51a16.778,16.778,0,0,0,3.97-2.837,17.325,17.325,0,0,0,1.533-1.751,16.471,16.471,0,0,0,2.212-3.89c.126-.351.266-.683.369-1.038s.21-.7.281-1.064a9.216,9.216,0,0,0,.173-1.089,3.527,3.527,0,0,0-.034-1.1,2.432,2.432,0,0,1-.349.388c-.127.119-.237.231-.376.339l-.385.32-.4.3c-.522.4-1.075.758-1.6,1.106a24.012,24.012,0,0,1-3.249,1.725c-.53.245-1.076.424-1.591.618-.536.146-1.041.323-1.555.41a13.326,13.326,0,0,1-1.483.234c-.24.025-.481.017-.715.031-.117,0-.233.009-.347.018s-.232-.016-.346-.022c-.229-.014-.453-.029-.673-.031l-.66-.107c-.108-.018-.215-.028-.322-.04l-.323-.085c-.214-.055-.424-.111-.634-.151s-.422-.15-.631-.218c-.208-.085-.417-.111-.626-.218s-.417-.195-.625-.283a3.732,3.732,0,0,1-.627-.293c-.208-.118-.417-.233-.627-.339l-.316-.159c-.105-.056-.208-.136-.313-.2-.207-.14-.42-.269-.631-.4a5.423,5.423,0,0,1-.631-.414c-.419-.312-.842-.614-1.266-.914l-1.258-1.036a65.8,65.8,0,0,1-5-4.764l-.626-.646c-.21-.217-.434-.415-.633-.647-.4-.459-.825-.9-1.241-1.356-.7-.708-1.36-1.468-2.042-2.221l.087.032c.324.122.649.237.975.351a38.443,38.443,0,0,0,3.983,1.238c.679.168,1.359.345,2.044.5s1.4.255,2.1.37a35.709,35.709,0,0,0,8.76.375l2.278-.269c.772-.162,1.543-.326,2.31-.5a11.685,11.685,0,0,0,1.157-.343c.386-.127.772-.251,1.154-.387.192-.07.382-.127.573-.209l.573-.258c.382-.171.76-.351,1.135-.533a9.661,9.661,0,0,0,1.113-.618c.367-.224.727-.456,1.086-.685a5.065,5.065,0,0,0,.526-.382c.173-.134.344-.271.513-.409.336-.281.679-.542,1-.844s.618-.633.919-.953l.445-.482.4-.528.772-1.065c.227-.376.437-.76.647-1.139.1-.191.21-.379.307-.571l.251-.594c.159-.4.331-.789.465-1.189a16.811,16.811,0,0,0,.79-4.816A17.418,17.418,0,0,0,1466.649,1841.211Z" transform="translate(-1350.822 -1781.933)" fill="#fff"/></svg>