<svg xmlns="http://www.w3.org/2000/svg" width="88.643" height="107.848" viewBox="0 0 88.643 107.848"><g transform="translate(-1000.033 -2845.923)"><g transform="translate(1000.033 2845.923)"><g transform="translate(0 0)"><path d="M2028.891,119.263,2025.2,105.5l.924-42.013,6.463,34.626,2.77,2.585-3.693,8.033,7.387,6.464-5.54,4.063h11.08l3.694-4.063V101.811h11.081V115.2l3.693,4.063h11.08l-5.54-4.063,7.387-6.464-3.694-8.033,2.77-2.585,6.464-34.626.923,42.013-3.694,13.758s2.771,0,2.771,0c0,1.371,3.166,2.493,7.387,2.493s7.38-1.124,7.387-2.493l1.847-55.771-5.54-2.862h5.54l-5.54-14.4-11.08-6.187-14.774-2.031,2.77-5.632-2.77-2.124-.923-4.155-.923-3.878-2.77-5.54L2056.591,14h-5.54l-5.54,2.678-2.77,5.54-.923,3.878-.923,4.155-2.77,2.124,2.77,5.632-14.774,2.031-11.081,6.187-5.54,14.4h5.54l-5.54,2.862s1.847,55.77,1.847,55.771c0,1.371,3.166,2.493,7.387,2.493s7.387-1.122,7.387-2.493" transform="translate(-2009.5 -14)" fill="#153f4c"/></g><g transform="translate(1.847 12.05)"><path d="M2406.639,149.816a5.242,5.242,0,0,0-5.164-5.316,5.077,5.077,0,0,1-8.31,0,5.242,5.242,0,0,0-5.164,5.316,5.335,5.335,0,0,0,2.773,4.711,4.953,4.953,0,0,0-1.249,3.222c0,3.29,3.514,5.957,7.848,5.957s7.848-2.667,7.848-5.957a4.966,4.966,0,0,0-1.281-3.261A5.339,5.339,0,0,0,2406.639,149.816Z" transform="translate(-2354.897 -144.5)" fill="#b4bfd2" stroke="#11313f" stroke-miterlimit="10" stroke-width="1"/><path d="M2302.79,454.309c0-4.775-5.035-8.646-11.247-8.646-4.261,0-7.969,1.822-9.877,4.508-1.9-2.756-5.626-4.63-9.918-4.63-6.212,0-11.247,3.926-11.247,8.769,0,1.669,7.171,29.732,7.171,29.732h28.109S2302.79,455.936,2302.79,454.309Z" transform="translate(-2239.17 -417.743)" fill="#b4bfd2"/><path d="M2321.27,197.756l-2.77-5.632,2.77-2.124" transform="translate(-2291.815 -185.799)" fill="#b4bfd2"/><path d="M2630.5,197.756l2.77-5.632L2630.5,190" transform="translate(-2575.006 -185.799)" fill="#b4bfd2"/><path d="M2184.194,1018.758h-2.77L2180.5,1005" transform="translate(-2166.557 -925.545)" fill="#b4bfd2"/><path d="M2758.5,1018.758h2.77l.924-13.758" transform="translate(-2691.187 -925.545)" fill="#b4bfd2"/><path d="M2280.581,1132.216H2269.5l3.01-2.216h10.073Z" transform="translate(-2247.339 -1039.003)" fill="#b4bfd2"/><path d="M2044.274,1155s0,2.493-7.387,2.493S2029.5,1155,2029.5,1155h14.774Z" transform="translate(-2029.5 -1061.695)" fill="#b4bfd2"/><path d="M2804.274,1155s0,2.493-7.387,2.493S2789.5,1155,2789.5,1155h14.774Z" transform="translate(-2719.325 -1061.695)" fill="#b4bfd2"/><path d="M2569.5,1132.216h11.08l-3.01-2.216H2567.5Z" transform="translate(-2517.823 -1039.003)" fill="#b4bfd2"/></g><g transform="translate(38.502 15.22)"><path d="M2441.014,295.645c2.164,2.9-12.669,2.962-10.5.005" transform="translate(-2429.945 -284.859)" fill="#fff"/><g transform="translate(2.389 4.026)"><path d="M2457.125,222.437a2.666,2.666,0,0,1-2.681,0c-1.154,0-2.09.695-2.09,1.551s.935,1.551,2.09,1.551a2.666,2.666,0,0,1,2.681,0c1.154,0,2.089-.695,2.089-1.551S2458.279,222.437,2457.125,222.437Z" transform="translate(-2452.354 -222.437)" fill="#cad7ea"/><g transform="translate(0.659 0.65)"><path d="M2461.343,230.4a.923.923,0,1,1-.924-.923A.924.924,0,0,1,2461.343,230.4Z" transform="translate(-2459.496 -229.479)" fill="#11313f"/><path d="M2501.7,230.4a.923.923,0,1,1-.923-.923A.923.923,0,0,1,2501.7,230.4Z" transform="translate(-2496.129 -229.479)" fill="#11313f"/></g></g><g transform="translate(0 0)"><path d="M2429.807,180.349a1.671,1.671,0,1,1-1.664-1.516A1.595,1.595,0,0,1,2429.807,180.349Z" transform="translate(-2426.479 -178.833)" fill="#11313f"/><path d="M2429.807,182.654a1.671,1.671,0,1,1-1.664-1.516A1.595,1.595,0,0,1,2429.807,182.654Z" transform="translate(-2426.479 -180.925)"/><path d="M2443.911,192.646a.519.519,0,1,1-.519-.519A.519.519,0,0,1,2443.911,192.646Z" transform="translate(-2441.359 -190.9)" fill="#fff"/><path d="M2519.807,180.349a1.671,1.671,0,1,1-1.664-1.516A1.595,1.595,0,0,1,2519.807,180.349Z" transform="translate(-2508.169 -178.833)" fill="#11313f"/><path d="M2519.807,182.654a1.671,1.671,0,1,1-1.664-1.516A1.595,1.595,0,0,1,2519.807,182.654Z" transform="translate(-2508.169 -180.925)"/></g></g><path d="M2533.911,192.646a.519.519,0,1,1-.519-.519A.519.519,0,0,1,2533.911,192.646Z" transform="translate(-2484.547 -175.68)" fill="#fff"/></g></g></svg>