<?xml version="1.0" encoding="utf-8"?>
<!-- Generator: Adobe Illustrator 24.2.1, SVG Export Plug-In . SVG Version: 6.00 Build 0)  -->
<svg version="1.1" id="Camada_1" xmlns="http://www.w3.org/2000/svg" xmlns:xlink="http://www.w3.org/1999/xlink" x="0px" y="0px"
	 viewBox="0 0 100 100" style="enable-background:new 0 0 100 100;" xml:space="preserve">
<style type="text/css">
	.st0{fill:#1688C6;}
	.st1{fill:#FFFFFF;}
</style>
<circle class="st0" cx="50" cy="50" r="50"/>
<path class="st1" d="M88.6,41.8c-0.2-1.2-0.5-2.4-1-3.6c-0.1-0.3-0.2-0.6-0.4-0.8c-0.1-0.3-0.3-0.5-0.5-0.8
	c-0.2-0.3-0.3-0.5-0.5-0.7c-0.2-0.2-0.4-0.5-0.7-0.6c0,0.1,0,0.3,0,0.4c0,0.1,0,0.3,0,0.4l0,0.4l-0.1,0.4c-0.1,0.5-0.2,1.1-0.3,1.6
	c-0.2,1-0.5,2-0.9,2.9c-0.2,0.5-0.4,0.9-0.6,1.3c-0.2,0.4-0.4,0.8-0.7,1.2c-0.2,0.3-0.5,0.7-0.7,1c-0.1,0.2-0.3,0.3-0.4,0.4
	c-0.1,0.1-0.1,0.1-0.2,0.2c-0.1,0.1-0.1,0.1-0.2,0.2c-0.1,0.1-0.3,0.2-0.4,0.4l-0.4,0.3c-0.1,0.1-0.1,0.1-0.2,0.2l-0.2,0.1
	c-0.2,0.1-0.3,0.2-0.5,0.3s-0.3,0.2-0.5,0.2s-0.3,0.2-0.5,0.2c-0.2,0.1-0.4,0.1-0.5,0.2c-0.2,0.1-0.4,0.1-0.5,0.2
	c-0.2,0.1-0.4,0.1-0.6,0.2l-0.3,0.1c-0.1,0-0.2,0-0.3,0.1c-0.2,0-0.4,0.1-0.6,0.1c-0.2,0.1-0.4,0.1-0.6,0.1
	c-0.4,0.1-0.9,0.1-1.3,0.2l-1.3,0.1C70.8,49,68.9,49,67,49l-0.7,0c-0.2,0-0.5,0-0.8,0c-0.5,0-1,0-1.5-0.1c-1,0-2.1-0.1-3.1-0.1
	c-0.6,0-1.2,0-1.7-0.1l0.1-0.1c0.3-0.1,0.5-0.2,0.8-0.3s0.5-0.2,0.8-0.4c1.1-0.5,2.1-1,3.1-1.6c0.5-0.3,1-0.6,1.5-0.9s1-0.7,1.5-1
	c2-1.4,3.8-3,5.4-4.8l1.2-1.5c0.4-0.5,0.7-1.1,1.1-1.6c0.2-0.3,0.3-0.6,0.5-0.9c0.2-0.3,0.3-0.6,0.5-0.9c0.1-0.2,0.2-0.3,0.2-0.5
	l0.2-0.5c0.1-0.3,0.2-0.6,0.4-1c0.1-0.3,0.2-0.7,0.3-1c0.1-0.3,0.2-0.7,0.3-1c0-0.2,0.1-0.4,0.1-0.5c0-0.2,0-0.4,0.1-0.5
	c0-0.4,0.1-0.7,0.1-1.1c0-0.4,0-0.7,0-1.1l0-0.5l-0.1-0.5L77,25.5c-0.1-0.4-0.2-0.7-0.3-1.1c0-0.2-0.1-0.3-0.1-0.5l-0.2-0.5
	c-0.1-0.3-0.3-0.7-0.4-1c-0.6-1.2-1.4-2.3-2.3-3.3c-0.4-0.5-0.9-0.9-1.4-1.3c-1-0.8-2-1.4-3.2-1.9c-0.3-0.1-0.6-0.2-0.9-0.3
	c-0.3-0.1-0.6-0.2-0.9-0.2c-0.3-0.1-0.6-0.1-0.9-0.2c-0.3,0-0.6,0-0.9,0c0.1,0.1,0.2,0.2,0.3,0.3c0.1,0.1,0.2,0.2,0.3,0.3l0.3,0.3
	l0.2,0.3c0.3,0.4,0.6,0.9,0.9,1.3c0.5,0.9,1,1.8,1.4,2.7c0.2,0.4,0.3,0.9,0.5,1.3c0.1,0.4,0.3,0.9,0.3,1.3c0.1,0.4,0.1,0.8,0.2,1.2
	c0,0.2,0,0.4,0,0.6c0,0.1,0,0.2,0,0.3c0,0.1,0,0.2,0,0.3c0,0.2,0,0.4,0,0.6l-0.1,0.5c0,0.1,0,0.2,0,0.3l-0.1,0.3
	c0,0.2-0.1,0.3-0.1,0.5s-0.1,0.3-0.2,0.5c-0.1,0.2-0.1,0.3-0.2,0.5s-0.2,0.3-0.2,0.5c-0.1,0.2-0.1,0.4-0.2,0.5
	c-0.1,0.2-0.2,0.3-0.3,0.5l-0.1,0.3c0,0.1-0.1,0.2-0.2,0.3c-0.1,0.2-0.2,0.3-0.3,0.5c-0.1,0.2-0.2,0.4-0.4,0.5
	c-0.3,0.3-0.5,0.7-0.8,1l-0.9,1c-1.3,1.4-2.6,2.8-4,4.1l-0.5,0.5c-0.2,0.2-0.3,0.4-0.5,0.5c-0.4,0.3-0.8,0.7-1.1,1
	c-0.7,0.7-1.5,1.4-2.3,2.1c-0.1,0.1-0.2,0.2-0.4,0.3c0,0,0,0,0-0.1c0.3-0.8,0.5-1.6,0.7-2.5c0.1-0.3,0.1-0.6,0.2-0.9
	c0.1-0.6,0.2-1.1,0.3-1.7c0.1-0.4,0.1-0.9,0.2-1.3c0-0.2,0-0.3,0.1-0.5c0.1-0.9,0.2-1.8,0.2-2.7c0-0.6,0-1.2,0-1.8
	c0-0.9-0.1-1.8-0.2-2.8l-0.2-1L58,26.4c-0.1-0.4-0.2-0.8-0.3-1.2c-0.1-0.2-0.1-0.5-0.2-0.7c0-0.1,0-0.2-0.1-0.2s-0.1-0.2-0.1-0.2
	c-0.1-0.2-0.1-0.3-0.2-0.5c-0.1-0.3-0.2-0.6-0.4-0.9c-0.1-0.2-0.1-0.3-0.2-0.5l-0.2-0.5c-0.2-0.3-0.3-0.6-0.5-0.9
	c-0.2-0.3-0.3-0.6-0.6-0.9c-0.2-0.3-0.4-0.6-0.6-0.9c-0.1-0.1-0.2-0.3-0.3-0.4c-0.1-0.1-0.2-0.3-0.4-0.4c-0.1-0.1-0.2-0.3-0.4-0.4
	c-0.1-0.1-0.2-0.3-0.4-0.4l0,0c-0.3-0.2-0.5-0.5-0.8-0.7l-0.4-0.4L51.6,16l-0.9-0.6c-0.3-0.2-0.6-0.3-1-0.5
	c-0.2-0.1-0.3-0.2-0.5-0.2l-0.5-0.2c-0.3-0.1-0.7-0.2-1-0.3c-0.7-0.2-1.3-0.3-2-0.4l-0.1,0c-0.3,0-0.6-0.1-0.9-0.1
	c-0.2,0-0.3,0-0.5,0h-0.5c-0.2,0-0.3,0-0.5,0c-0.2,0-0.4,0-0.5,0c-0.3,0-0.6,0.1-0.9,0.1c-1.2,0.2-2.4,0.6-3.5,1.1
	c-0.3,0.1-0.5,0.3-0.8,0.4s-0.5,0.3-0.8,0.5c-0.1,0.1-0.2,0.2-0.4,0.3c-0.1,0.1-0.2,0.2-0.3,0.3c-0.1,0.1-0.1,0.1-0.2,0.2
	c-0.1,0.1-0.2,0.2-0.3,0.3c0,0.1-0.1,0.1-0.1,0.2l0,0c0.1,0,0.1,0,0.2,0c0.1,0,0.1,0,0.2,0c0.1,0,0.3,0,0.4,0l0.4,0l0.4,0
	c0.5,0,1.1,0.1,1.6,0.2c1,0.2,2,0.4,3,0.8c0,0,0.1,0,0.1,0c0.2,0.1,0.4,0.2,0.7,0.2c0.2,0.1,0.4,0.2,0.5,0.2
	c0.3,0.2,0.6,0.3,0.9,0.5c0.1,0.1,0.2,0.1,0.3,0.2c0.2,0.1,0.4,0.2,0.5,0.3c0.1,0.1,0.2,0.1,0.2,0.2c0.1,0.1,0.2,0.1,0.2,0.2
	c0.1,0.1,0.2,0.1,0.2,0.2c0.1,0.1,0.1,0.1,0.2,0.2c0.1,0.1,0.1,0.1,0.2,0.2c0.1,0.1,0.1,0.1,0.2,0.2l0,0c0.1,0.1,0.3,0.3,0.4,0.4
	l0.3,0.4c0.1,0.1,0.1,0.1,0.2,0.2l0.1,0.2c0.1,0.1,0.1,0.2,0.2,0.3c0,0.1,0.1,0.1,0.1,0.2c0,0.1,0.1,0.2,0.1,0.2
	c0,0.1,0.1,0.2,0.1,0.2c0,0,0,0.1,0.1,0.1c0.1,0.1,0.1,0.2,0.2,0.4c0.1,0.2,0.1,0.4,0.2,0.5c0.1,0.2,0.2,0.3,0.2,0.5
	c0,0.1,0.1,0.3,0.1,0.4c0,0,0,0.1,0,0.1l0,0l0.1,0.2c0,0,0,0.1,0,0.1c0,0.1,0,0.1,0,0.2c0,0.2,0.1,0.4,0.2,0.6c0,0,0,0.1,0,0.1
	c0,0.1,0,0.1,0.1,0.2c0,0.1,0,0.2,0.1,0.3c0.1,0.4,0.2,0.8,0.3,1.3l0.2,1.3c0.2,1.9,0.4,3.8,0.4,5.7l0,0.7c0,0.2,0,0.4,0,0.6
	c0,0.1,0,0.1,0,0.2c0,0.1,0,0.3,0,0.4c0,0.2,0,0.4,0,0.6c0,0.2,0,0.3,0,0.5c0,0.8,0,1.5,0,2.3c0,0.2,0,0.5,0,0.7
	c-0.1-0.2-0.2-0.4-0.2-0.5c-0.1-0.3-0.3-0.5-0.4-0.8c-0.5-1-1.1-2-1.7-3c-0.3-0.5-0.6-1-0.9-1.5c-0.3-0.5-0.7-1-1-1.4
	c-1.5-1.9-3.2-3.7-5-5.2l-1.5-1.1c-0.6-0.3-1.1-0.7-1.7-1c-0.3-0.2-0.6-0.3-0.9-0.5c-0.3-0.1-0.6-0.3-0.9-0.4
	c-0.2-0.1-0.3-0.1-0.5-0.2l-0.5-0.2c-0.3-0.1-0.7-0.2-1-0.3c-0.3-0.1-0.7-0.2-1-0.3c-0.3-0.1-0.7-0.1-1-0.2c-0.2,0-0.4-0.1-0.5-0.1
	c-0.2,0-0.4,0-0.5,0c-0.4,0-0.7-0.1-1.1-0.1c-0.4,0-0.7,0-1.1,0l-0.5,0l-0.5,0.1l-1.1,0.2c-0.4,0.1-0.7,0.2-1,0.3
	c-0.2,0.1-0.3,0.1-0.5,0.2l-0.5,0.2c-0.3,0.1-0.6,0.3-1,0.4c-0.6,0.3-1.2,0.7-1.7,1.1c-0.5,0.4-1,0.8-1.5,1.3
	c-0.4,0.5-0.9,1-1.2,1.5c-0.7,1-1.3,2.1-1.7,3.3c-0.1,0.3-0.2,0.6-0.3,0.9c-0.1,0.3-0.2,0.6-0.2,0.9c-0.1,0.3-0.1,0.6-0.1,0.9
	c0,0.3,0,0.6,0.1,0.9c0.1-0.1,0.2-0.2,0.3-0.3c0.1-0.1,0.2-0.2,0.3-0.3l0.3-0.3l0.3-0.3c0.4-0.3,0.9-0.7,1.3-1
	c0.8-0.6,1.7-1.1,2.7-1.5c0.4-0.2,0.9-0.4,1.3-0.5c0.4-0.1,0.9-0.3,1.3-0.4c0.4-0.1,0.8-0.2,1.2-0.2c0.2,0,0.4,0,0.6,0
	c0.1,0,0.2,0,0.3,0c0.1,0,0.2,0,0.3,0c0.2,0,0.4,0,0.6,0l0.5,0.1c0.1,0,0.2,0,0.3,0l0.3,0.1c0.2,0,0.4,0.1,0.5,0.1
	c0.2,0,0.4,0.1,0.5,0.2c0.2,0.1,0.3,0.1,0.5,0.2c0.2,0.1,0.3,0.2,0.5,0.2c0.2,0.1,0.4,0.1,0.5,0.2c0.2,0.1,0.3,0.2,0.5,0.3l0.3,0.1
	c0.1,0,0.2,0.1,0.3,0.2c0.2,0.1,0.4,0.2,0.5,0.3c0.2,0.1,0.4,0.2,0.5,0.3c0.4,0.2,0.7,0.5,1.1,0.7l1.1,0.8c1.5,1.2,2.9,2.5,4.2,3.8
	l0.5,0.5c0.2,0.2,0.4,0.3,0.5,0.5c0.3,0.4,0.7,0.7,1.1,1.1c0.7,0.7,1.4,1.5,2.2,2.2c0.7,0.7,1.5,1.5,2.2,2.3
	c0.1,0.1,0.3,0.3,0.4,0.4c-0.4-0.2-0.8-0.4-1.2-0.7c-0.5-0.2-1-0.5-1.6-0.7c-0.5-0.2-1-0.5-1.6-0.7c-0.3-0.1-0.5-0.2-0.8-0.3
	c-0.3-0.1-0.5-0.2-0.8-0.3c-1.1-0.4-2.2-0.7-3.3-1c-0.6-0.1-1.1-0.3-1.7-0.4c-0.6-0.1-1.2-0.2-1.7-0.3c-2.4-0.4-4.8-0.4-7.3-0.2
	l-1.9,0.2c-0.6,0.1-1.3,0.3-1.9,0.4c-0.3,0.1-0.6,0.2-1,0.3c-0.3,0.1-0.6,0.2-1,0.3c-0.2,0.1-0.3,0.1-0.5,0.2l-0.5,0.2
	c-0.3,0.1-0.6,0.3-0.9,0.5c-0.3,0.2-0.6,0.3-0.9,0.5c-0.3,0.2-0.6,0.4-0.9,0.6c-0.2,0.1-0.3,0.2-0.4,0.3c-0.1,0.1-0.3,0.2-0.4,0.3
	c-0.3,0.2-0.6,0.5-0.8,0.7c-0.3,0.3-0.5,0.5-0.8,0.8l-0.4,0.4l-0.3,0.4l-0.6,0.9c-0.2,0.3-0.4,0.6-0.5,1c-0.1,0.2-0.2,0.3-0.2,0.5
	l-0.2,0.5c-0.1,0.3-0.3,0.7-0.4,1c-0.4,1.3-0.6,2.6-0.6,4c0,0.6,0.1,1.3,0.2,1.9c0.2,1.2,0.5,2.4,1,3.6c0.1,0.3,0.2,0.6,0.4,0.8
	s0.3,0.5,0.5,0.8c0.2,0.3,0.4,0.5,0.5,0.7c0.2,0.2,0.4,0.4,0.7,0.6c0-0.1,0-0.3,0-0.4c0-0.1,0-0.3,0-0.4l0-0.4l0.1-0.4
	c0.1-0.5,0.2-1.1,0.3-1.6c0.2-1,0.5-2,0.9-2.9c0.2-0.5,0.4-0.9,0.6-1.3c0.2-0.4,0.4-0.8,0.7-1.2c0.2-0.4,0.5-0.7,0.7-1
	c0.1-0.2,0.3-0.3,0.4-0.4c0.1-0.1,0.1-0.1,0.2-0.2c0.1-0.1,0.1-0.1,0.2-0.2c0.1-0.1,0.3-0.2,0.4-0.4l0.4-0.3
	c0.1-0.1,0.1-0.1,0.2-0.2l0.2-0.1c0.2-0.1,0.3-0.2,0.5-0.3c0.1-0.1,0.3-0.2,0.5-0.2c0.2-0.1,0.3-0.2,0.5-0.2s0.4-0.1,0.5-0.2
	c0.2-0.1,0.4-0.2,0.5-0.2c0.2-0.1,0.4-0.1,0.6-0.2l0.3-0.1c0.1,0,0.2,0,0.3-0.1c0.2,0,0.4-0.1,0.6-0.1c0.2-0.1,0.4-0.1,0.6-0.1
	c0.4-0.1,0.9-0.1,1.3-0.2l1.3-0.1c1.9-0.2,3.8-0.2,5.7-0.2h0.7c0.2,0,0.5,0,0.8,0c0.5,0,1,0,1.5,0c1,0,2.1,0.1,3.1,0.1
	c1,0,2.1,0.1,3.2,0.1c0.5,0,1.1,0,1.6,0H44c-0.4,0.1-0.9,0.3-1.3,0.4c-0.3,0.1-0.5,0.2-0.8,0.3c-0.3,0.1-0.5,0.2-0.8,0.3
	c-1.1,0.4-2.1,0.9-3.2,1.4c-0.5,0.3-1,0.5-1.5,0.8c-0.5,0.3-1,0.6-1.5,0.9c-2.1,1.3-4,2.8-5.7,4.6l-1.3,1.4c-0.4,0.5-0.8,1-1.2,1.6
	c-0.2,0.3-0.4,0.6-0.5,0.8c-0.2,0.3-0.3,0.6-0.5,0.9c-0.1,0.1-0.2,0.3-0.2,0.4l-0.2,0.5c-0.1,0.3-0.3,0.6-0.4,1
	c-0.1,0.3-0.3,0.7-0.4,1c-0.1,0.3-0.2,0.7-0.3,1c-0.1,0.2-0.1,0.3-0.1,0.5c0,0.2-0.1,0.4-0.1,0.5c-0.1,0.4-0.1,0.7-0.2,1.1
	s0,0.7-0.1,1.1l0,0.5l0,0.5l0.1,1.1c0.1,0.4,0.1,0.7,0.2,1.1c0,0.2,0.1,0.4,0.1,0.5l0.2,0.5c0.1,0.3,0.2,0.7,0.4,1
	c0.3,0.6,0.6,1.2,1,1.8c0.4,0.6,0.7,1.1,1.2,1.6c0.4,0.5,0.9,0.9,1.4,1.4c0.9,0.8,2,1.5,3.1,2c0.3,0.1,0.6,0.3,0.8,0.4
	c0.3,0.1,0.6,0.2,0.9,0.3c0.3,0.1,0.6,0.2,0.9,0.2c0.3,0.1,0.6,0.1,0.9,0c-0.1-0.1-0.2-0.2-0.3-0.3c-0.1-0.1-0.2-0.2-0.3-0.3
	L34,83.3L33.8,83c-0.3-0.5-0.6-0.9-0.8-1.4c-0.5-0.9-0.9-1.8-1.3-2.8c-0.2-0.5-0.3-0.9-0.4-1.3c-0.1-0.5-0.2-0.9-0.3-1.3
	c-0.1-0.4-0.1-0.8-0.1-1.2c0-0.2,0-0.4,0-0.6c0-0.1,0-0.2,0-0.3c0-0.1,0-0.2,0-0.3c0-0.2,0-0.4,0.1-0.6l0.1-0.5c0-0.1,0-0.2,0-0.3
	l0.1-0.3c0.1-0.2,0.1-0.3,0.2-0.5c0-0.2,0.1-0.3,0.2-0.5c0.1-0.2,0.1-0.3,0.2-0.5c0.1-0.2,0.2-0.3,0.3-0.5c0.1-0.2,0.2-0.3,0.3-0.5
	c0.1-0.2,0.2-0.3,0.3-0.5l0.1-0.3c0.1-0.1,0.1-0.2,0.2-0.2c0.1-0.2,0.2-0.3,0.4-0.5c0.1-0.2,0.2-0.3,0.4-0.5c0.3-0.3,0.6-0.7,0.8-1
	l0.9-1c1.3-1.4,2.7-2.7,4.2-3.9l0.6-0.5c0.2-0.2,0.4-0.3,0.6-0.5c0.4-0.3,0.8-0.6,1.2-1c0.8-0.7,1.6-1.3,2.4-2
	c0.8-0.7,1.6-1.3,2.4-1.9c-0.1,0.2-0.1,0.3-0.2,0.5c-0.1,0.3-0.2,0.5-0.3,0.8c-0.1,0.3-0.2,0.5-0.3,0.8c-0.4,1.1-0.7,2.2-1,3.3
	c-0.1,0.6-0.3,1.1-0.4,1.7c-0.1,0.6-0.2,1.2-0.3,1.7c-0.4,2.4-0.4,4.8-0.2,7.3l0.3,1.9c0.1,0.6,0.3,1.3,0.4,1.9
	c0.1,0.3,0.2,0.6,0.3,1c0.1,0.3,0.2,0.6,0.3,1c0.1,0.2,0.1,0.3,0.2,0.5l0.2,0.5c0.1,0.3,0.3,0.6,0.5,0.9c0.2,0.3,0.3,0.6,0.5,0.9
	c0.2,0.3,0.4,0.6,0.6,0.9c0.1,0.2,0.2,0.3,0.3,0.4c0.1,0.1,0.2,0.3,0.3,0.4c0.2,0.3,0.5,0.6,0.7,0.8c0.3,0.3,0.5,0.5,0.8,0.7
	l0.4,0.4l0.4,0.3l0.9,0.6c0.3,0.2,0.6,0.4,1,0.5c0.2,0.1,0.3,0.2,0.5,0.2l0.5,0.2c0.3,0.1,0.7,0.3,1,0.4c1.3,0.4,2.6,0.6,4,0.6
	c0.6,0,1.3-0.1,1.9-0.2c1.2-0.2,2.4-0.5,3.6-1c0.3-0.1,0.6-0.3,0.8-0.4c0.3-0.2,0.5-0.3,0.8-0.5c0.3-0.2,0.5-0.4,0.7-0.6
	c0.2-0.2,0.4-0.4,0.6-0.7c-0.1,0-0.3,0-0.4,0c-0.1,0-0.3,0-0.4,0l-0.4,0l-0.4-0.1c-0.5-0.1-1.1-0.2-1.6-0.3c-1-0.2-2-0.5-2.9-0.8
	c-0.5-0.2-0.9-0.4-1.3-0.5c-0.4-0.2-0.8-0.4-1.2-0.6c-0.4-0.2-0.7-0.5-1-0.7c-0.2-0.1-0.3-0.3-0.4-0.4c-0.1-0.1-0.1-0.1-0.2-0.2
	c-0.1-0.1-0.1-0.1-0.2-0.2c-0.1-0.1-0.3-0.3-0.4-0.4L55.5,79c-0.1-0.1-0.1-0.1-0.2-0.2l-0.1-0.2c-0.1-0.2-0.2-0.3-0.3-0.5
	c-0.1-0.1-0.2-0.3-0.2-0.5c-0.1-0.2-0.2-0.3-0.2-0.5c-0.1-0.2-0.1-0.4-0.2-0.5c-0.1-0.2-0.2-0.4-0.2-0.5c-0.1-0.2-0.1-0.4-0.2-0.6
	l-0.1-0.3c0-0.1,0-0.2-0.1-0.3c0-0.2-0.1-0.4-0.1-0.6c-0.1-0.2-0.1-0.4-0.1-0.6c-0.1-0.4-0.1-0.9-0.2-1.3L53,71.1
	c-0.2-1.9-0.3-3.8-0.2-5.7v-0.7c0-0.2,0-0.5,0-0.8c0-0.5,0-1,0-1.5c0-1,0-1.9,0.1-2.9c0.4,0.7,0.7,1.5,1.2,2.2
	c0.3,0.5,0.6,1,0.9,1.5c0.3,0.5,0.7,1,1,1.4c1.4,2,3.1,3.8,4.9,5.4l1.5,1.2c0.5,0.4,1.1,0.7,1.6,1.1c0.3,0.2,0.6,0.3,0.9,0.5
	c0.3,0.2,0.6,0.3,0.9,0.5c0.2,0.1,0.3,0.1,0.5,0.2l0.5,0.2c0.3,0.1,0.6,0.2,1,0.4c0.3,0.1,0.7,0.2,1,0.3c0.3,0.1,0.7,0.2,1,0.2
	c0.2,0,0.4,0.1,0.5,0.1c0.2,0,0.4,0,0.5,0.1c0.4,0,0.7,0.1,1.1,0.1c0.4,0,0.7,0,1.1,0l0.5,0l0.5-0.1l1.1-0.2c0.4-0.1,0.7-0.2,1-0.3
	c0.2-0.1,0.3-0.1,0.5-0.2l0.5-0.2c0.3-0.1,0.7-0.3,1-0.4c1.2-0.6,2.3-1.4,3.3-2.4c0.5-0.5,0.9-0.9,1.3-1.5c0.8-1,1.4-2.1,1.8-3.2
	c0.1-0.3,0.2-0.6,0.3-0.9c0.1-0.3,0.2-0.6,0.2-0.9c0.1-0.3,0.1-0.6,0.1-0.9c0-0.3,0-0.6,0-0.9c-0.1,0.1-0.2,0.2-0.3,0.3
	c-0.1,0.1-0.2,0.2-0.3,0.3l-0.3,0.3L84,63.8c-0.4,0.3-0.9,0.6-1.3,0.9c-0.9,0.5-1.8,1-2.7,1.4c-0.4,0.2-0.9,0.4-1.3,0.5
	c-0.4,0.1-0.9,0.3-1.3,0.3c-0.4,0.1-0.8,0.2-1.2,0.2c-0.2,0-0.4,0-0.6,0c-0.1,0-0.2,0-0.3,0c-0.1,0-0.2,0-0.3,0c-0.2,0-0.4,0-0.6,0
	l-0.5-0.1c-0.1,0-0.2,0-0.3,0L73.3,67c-0.2,0-0.4-0.1-0.5-0.1c-0.2,0-0.3-0.1-0.5-0.2c-0.2-0.1-0.3-0.1-0.5-0.2
	c-0.2-0.1-0.3-0.2-0.5-0.2c-0.2-0.1-0.4-0.1-0.5-0.2c-0.2-0.1-0.3-0.2-0.5-0.3l-0.3-0.1c-0.1,0-0.2-0.1-0.3-0.2
	c-0.2-0.1-0.3-0.2-0.5-0.3c-0.2-0.1-0.4-0.2-0.5-0.3c-0.3-0.3-0.7-0.5-1-0.8l-1-0.9c-1.4-1.2-2.8-2.6-4.1-3.9l-0.5-0.5
	c-0.2-0.2-0.4-0.3-0.5-0.5c-0.3-0.4-0.7-0.7-1-1.1c-0.6-0.6-1.1-1.2-1.7-1.8l0.1,0c0.3,0.1,0.5,0.2,0.8,0.3c1.1,0.4,2.2,0.7,3.3,1
	c0.6,0.1,1.1,0.3,1.7,0.4c0.6,0.1,1.2,0.2,1.7,0.3c2.4,0.4,4.8,0.5,7.3,0.3l1.9-0.2c0.6-0.1,1.3-0.3,1.9-0.4c0.3-0.1,0.6-0.2,1-0.3
	c0.3-0.1,0.6-0.2,1-0.3c0.2-0.1,0.3-0.1,0.5-0.2l0.5-0.2c0.3-0.1,0.6-0.3,0.9-0.4c0.3-0.2,0.6-0.3,0.9-0.5c0.3-0.2,0.6-0.4,0.9-0.6
	c0.2-0.1,0.3-0.2,0.4-0.3c0.1-0.1,0.3-0.2,0.4-0.3c0.3-0.2,0.6-0.4,0.8-0.7c0.3-0.3,0.5-0.5,0.8-0.8l0.4-0.4l0.3-0.4l0.6-0.9
	c0.2-0.3,0.4-0.6,0.5-0.9c0.1-0.2,0.2-0.3,0.3-0.5l0.2-0.5c0.1-0.3,0.3-0.7,0.4-1c0.4-1.3,0.6-2.6,0.7-4
	C88.8,43,88.7,42.4,88.6,41.8z"/>
</svg>
