<?xml version="1.0" encoding="utf-8"?>
<!-- Generator: Adobe Illustrator 25.2.1, SVG Export Plug-In . SVG Version: 6.00 Build 0)  -->
<svg version="1.1" id="Camada_1" xmlns="http://www.w3.org/2000/svg" xmlns:xlink="http://www.w3.org/1999/xlink" x="0px" y="0px"
	 viewBox="0 0 128.4 105.8" style="enable-background:new 0 0 128.4 105.8;" xml:space="preserve">
<style type="text/css">
	.st0{fill:none;stroke:#FFFFFF;stroke-width:5.5;stroke-linecap:round;stroke-linejoin:round;}
</style>
<path class="st0" d="M125.7,2.8c-5.3,3.8-11.3,6.7-17.5,8.5C99,1,83.2-0.1,72.8,8.9c-5.6,4.8-8.7,11.9-8.6,19.2v5.6
	c-19.9,0.5-38.8-9-50.3-25.3c0,0-22.3,50.3,27.9,72.6C30.3,88.9,16.6,92.8,2.8,92.2c50.3,27.9,111.7,0,111.7-64.2
	c0-1.6-0.2-3.1-0.4-4.6C119.7,17.7,123.8,10.6,125.7,2.8L125.7,2.8z"/>
</svg>
