<?xml version="1.0" encoding="utf-8"?>
<!-- Generator: Adobe Illustrator 24.2.1, SVG Export Plug-In . SVG Version: 6.00 Build 0)  -->
<svg version="1.1" id="Camada_1" xmlns="http://www.w3.org/2000/svg" xmlns:xlink="http://www.w3.org/1999/xlink" x="0px" y="0px"
	 viewBox="0 0 100 100" style="enable-background:new 0 0 100 100;" xml:space="preserve">
<style type="text/css">
	.st0{fill:#040405;}
	.st1{fill:#0F519E;stroke:#0F519E;stroke-width:0.667;stroke-miterlimit:10;}
	.st2{fill:#DE1B25;stroke:#DE1B25;stroke-width:0.667;stroke-miterlimit:10;}
	.st3{fill:#5B3584;stroke:#5B3584;stroke-width:0.667;stroke-miterlimit:10;}
	.st4{fill:#FFDC00;stroke:#FFDC00;stroke-width:0.667;stroke-miterlimit:10;}
	.st5{fill:#EE6B08;stroke:#EE6B08;stroke-width:0.667;stroke-miterlimit:10;}
	.st6{fill:#FFFFFF;stroke:#FFFFFF;stroke-width:0.667;stroke-miterlimit:10;}
	.st7{fill:#ED7914;stroke:#ED7914;stroke-width:0.667;stroke-miterlimit:10;}
	.st8{fill:#FFC200;stroke:#FFC200;stroke-width:0.667;stroke-miterlimit:10;}
	.st9{fill:#FFFFFF;}
	.st10{fill:#54A54F;stroke:#54A54F;stroke-width:0.667;stroke-miterlimit:10;}
	.st11{fill:#88B21B;stroke:#88B21B;stroke-width:0.667;stroke-miterlimit:10;}
	.st12{fill:#3F3483;stroke:#3F3483;stroke-width:0.667;stroke-miterlimit:10;}
	.st13{fill:#263887;stroke:#263887;stroke-width:0.667;stroke-miterlimit:10;}
	.st14{fill:#276DB5;stroke:#276DB5;stroke-width:0.667;stroke-miterlimit:10;}
</style>
<circle class="st0" cx="50" cy="50" r="50"/>
<g transform="translate(26.924 23.945)">
	<path class="st0" d="M22.3-11.4c0.2,0,0.3,0,0.5,0C22.6-11.4,22.5-11.4,22.3-11.4z"/>
	<path class="st0" d="M23.4,63.5c-0.2,0-0.3,0-0.5,0C23.1,63.5,23.2,63.5,23.4,63.5z"/>
	<path class="st1" d="M6.6-1.9C13.3-2,19.5,1.5,22.9,7.3c3.3-5.8,9.5-9.4,16.2-9.5c-3.3-5.6-9.3-9.1-15.8-9.2c-0.2,0-0.3,0-0.5,0
		c-0.2,0-0.3,0-0.5,0C15.8-11.2,9.8-7.6,6.6-1.9z"/>
	<path class="st2" d="M39.2,16.5c6.7,0,12.9,3.5,16.3,9.2c5.1-9,1.9-20.4-7.1-25.5c-2.9-1.6-6.1-2.5-9.4-2.4
		C42.5,3.6,42.5,10.7,39.2,16.5L39.2,16.5z"/>
	<path class="st3" d="M39.1-2.2c-6.7,0.1-12.8,3.7-16.2,9.5v0c3.4,5.8,3.5,12.9,0.1,18.7c3.3-5.8,9.5-9.4,16.2-9.5l0,0
		C42.5,10.7,42.5,3.6,39.1-2.2L39.1-2.2z"/>
	<path class="st4" d="M48.7,32.7c-2.8,1.7-6.1,2.6-9.3,2.6c3.4,5.8,3.4,12.9,0.1,18.7c10.4-0.1,18.7-8.5,18.6-18.9
		c0-3.3-0.9-6.5-2.6-9.3C53.9,28.6,51.6,31,48.7,32.7z"/>
	<path class="st5" d="M48.6,19c-2.9-1.6-6.1-2.5-9.4-2.4l0,0c-3.3,5.8-9.5,9.4-16.2,9.5c6.7-0.1,12.9,3.5,16.3,9.2l0,0
		c6.7-0.1,12.8-3.7,16.1-9.5C53.9,22.9,51.5,20.6,48.6,19z"/>
	<path class="st0" d="M39.2,16.5L39.2,16.5L39.2,16.5z"/>
	<path class="st6" d="M23.1,26c6.7-0.1,12.9-3.7,16.2-9.5l0,0C32.5,16.6,26.4,20.2,23.1,26z"/>
	<path class="st7" d="M39.5,54c-6.7,0.1-12.9-3.5-16.3-9.2c-3.3,5.8-9.5,9.4-16.2,9.5c3.3,5.6,9.3,9.1,15.8,9.2c0.2,0,0.3,0,0.5,0
		c0.2,0,0.3,0,0.5,0C30.4,63.3,36.3,59.7,39.5,54z"/>
	<path class="st8" d="M39.4,35.3L39.4,35.3c-6.7,0.1-12.9-3.5-16.3-9.2c3.4,5.8,3.5,12.9,0.2,18.7v0c3.4,5.8,9.6,9.3,16.3,9.2
		C42.8,48.2,42.8,41,39.4,35.3L39.4,35.3z"/>
	<path class="st0" d="M39.4,35.3L39.4,35.3L39.4,35.3z"/>
	<path class="st9" d="M23.1,26c3.4,5.8,9.6,9.3,16.3,9.2l0,0C36,29.5,29.8,26,23.1,26z"/>
	<path class="st10" d="M6.9,35.5c-6.7,0-12.9-3.5-16.3-9.2c-5.1,9-1.9,20.4,7.1,25.5c2.9,1.6,6.1,2.5,9.4,2.4
		C3.7,48.5,3.6,41.4,6.9,35.5L6.9,35.5z"/>
	<path class="st11" d="M23.2,44.8C19.8,39,19.8,31.8,23.1,26c-3.3,5.8-9.5,9.4-16.2,9.5l0,0c-3.3,5.8-3.2,13,0.2,18.7
		C13.8,54.2,19.9,50.6,23.2,44.8L23.2,44.8z"/>
	<path class="st0" d="M23.2,44.8L23.2,44.8L23.2,44.8L23.2,44.8z"/>
	<path class="st6" d="M23.1,26c-3.3,5.8-3.2,13,0.1,18.7h0C26.5,38.9,26.5,31.8,23.1,26z"/>
	<path class="st12" d="M-2.6,19.4c2.8-1.7,6.1-2.6,9.3-2.6C3.4,11,3.3,3.9,6.6-2C-3.7-1.9-12,6.6-12,16.9c0,3.3,0.9,6.5,2.6,9.3
		C-7.7,23.4-5.4,21-2.6,19.4z"/>
	<path class="st13" d="M22.9,7.3L22.9,7.3C19.5,1.5,13.3-2,6.6-2C3.3,3.9,3.4,11,6.8,16.8l0,0c6.7-0.1,12.9,3.5,16.3,9.2
		C19.7,20.3,19.6,13.1,22.9,7.3z"/>
	<path class="st0" d="M22.9,7.3L22.9,7.3L22.9,7.3L22.9,7.3z"/>
	<path class="st6" d="M22.9,7.3c-3.3,5.8-3.2,13,0.2,18.7C26.4,20.2,26.3,13.1,22.9,7.3L22.9,7.3L22.9,7.3z"/>
	<path class="st14" d="M6.8,16.8L6.8,16.8c-6.7,0.1-12.8,3.7-16.1,9.5c3.4,5.8,9.6,9.3,16.3,9.2l0,0c3.3-5.8,9.5-9.4,16.2-9.5
		C16.4,26.1,10.2,22.6,6.8,16.8z"/>
	<path class="st0" d="M6.8,16.8L6.8,16.8L6.8,16.8z"/>
	<path class="st6" d="M23.1,26c-3.4-5.8-9.6-9.3-16.3-9.2l0,0C10.2,22.6,16.4,26.1,23.1,26z"/>
	<path class="st0" d="M6.9,35.5L6.9,35.5L6.9,35.5z"/>
	<path class="st6" d="M23.1,26c-6.7,0.1-12.9,3.7-16.2,9.5l0,0C13.6,35.5,19.8,31.9,23.1,26z"/>
</g>
</svg>
