<svg xmlns="http://www.w3.org/2000/svg" width="96.927" height="96.927" viewBox="0 0 96.927 96.927"><g transform="translate(0 -5.859)"><g transform="translate(10.791 16.66)"><path d="M2071.631,658.962q13.214.02,26.429-11.233,22.426-26.429,0-52.858-13.215-11.252-26.43-11.232Q2071.591,621.3,2071.631,658.962Z" transform="translate(-2034.081 -583.638)" fill="#1288c3"/><path d="M1952.051,647.727q13.154,11.2,26.307,11.232-.064-37.662,0-75.324-13.154.032-26.307,11.233Q1929.625,621.3,1952.051,647.727Z" transform="translate(-1940.838 -583.635)" fill="#ffc200"/><path d="M2130.953,780.748" transform="translate(-2076.393 -724.18)" fill="none" stroke="#dedede" stroke-width="30"/><path d="M2072.477,719.428" transform="translate(-2034.699 -680.457)" fill="none" stroke="#dedede" stroke-width="30"/><path d="M2072.475,639.537" transform="translate(-2034.697 -623.494)" fill="none" stroke="#dedede" stroke-width="30"/><path d="M2072.422,639.537" transform="translate(-2034.66 -623.494)" fill="none" stroke="#dedede" stroke-width="30"/><path d="M2072.419,719.428" transform="translate(-2034.657 -680.457)" fill="none" stroke="#dedede" stroke-width="30"/><path d="M2013.944,780.748" transform="translate(-1992.964 -724.18)" fill="none" stroke="#dedede" stroke-width="30"/><path d="M1979.909,741.3c1.318-1.322,13.848-13.875,26.378-26.429,12.53,12.553,25.061,25.108,26.381,26.434Q2006.289,763.764,1979.909,741.3Z" transform="translate(-1968.696 -677.21)" fill="#6ab484"/><path d="M1979.909,594.867c1.318,1.322,13.848,13.875,26.378,26.429q-.03-18.831-.042-37.662Q1993.077,583.654,1979.909,594.867Z" transform="translate(-1968.696 -583.634)" fill="#de2356"/><path d="M2071.734,621.3q.031-18.831.052-37.662,13.169.009,26.337,11.212" transform="translate(-2034.169 -583.634)" fill="#825288"/></g><g transform="translate(18.739 12.734)"><path d="M2000.675,711.174l-32.141,27.2,27.154-32.184Z" transform="translate(-1968.534 -667.095)" fill="#ccc"/><path d="M2068.138,706.2l27.2,32.233-32.184-27.254Z" transform="translate(-2035.997 -667.096)" fill="#ccc"/><path d="M2059.562,611.542l3.524-41.589,3.524,41.589Z" transform="translate(-2033.438 -569.953)" fill="#ccc"/></g><path d="M1951.7,557.476a36.984,36.984,0,1,1-36.984,36.984,36.983,36.983,0,0,1,36.984-36.984m0-11.479a48.349,48.349,0,1,0,18.868,3.813A48.169,48.169,0,0,0,1951.7,546Z" transform="translate(-1903.237 -540.138)" fill="#040405"/></g></svg>