<?xml version="1.0" encoding="utf-8"?>
<!-- Generator: Adobe Illustrator 21.0.2, SVG Export Plug-In . SVG Version: 6.00 Build 0)  -->
<svg version="1.1" id="Camada_1" xmlns="http://www.w3.org/2000/svg" xmlns:xlink="http://www.w3.org/1999/xlink" x="0px" y="0px"
	 viewBox="0 0 500 500" style="enable-background:new 0 0 500 500;" xml:space="preserve">
<style type="text/css">
	.st0{fill:#FFFFFF;}
</style>
<path class="st0" d="M430.4,129.4L261.7,28.2c-7.2-4.3-16.1-4.3-23.3,0L69.6,129.4c-6.8,4.1-11,11.5-11,19.4v202.3
	c0,8,4.2,15.4,11,19.4l168.7,101.2c3.6,2.2,7.6,3.2,11.7,3.2c4,0,8.1-1.1,11.7-3.2l168.7-101.2c6.8-4.1,11-11.5,11-19.4V148.8
	C441.4,140.9,437.2,133.5,430.4,129.4z M390.4,324.2c0,5.8-3.1,11.3-8.1,14.3l-123.7,74.2c-2.6,1.6-5.6,2.4-8.6,2.4
	c-3,0-5.9-0.8-8.6-2.4l-123.7-74.2c-5-3-8.1-8.4-8.1-14.3V175.8c0-5.8,3.1-11.3,8.1-14.3l123.7-74.2c5.3-3.2,11.8-3.2,17.1,0
	l123.7,74.2c5,3,8.1,8.4,8.1,14.3V324.2z"/>
</svg>
