<?xml version="1.0" encoding="utf-8"?>
<!-- Generator: Adobe Illustrator 24.2.1, SVG Export Plug-In . SVG Version: 6.00 Build 0)  -->
<svg version="1.1" id="Camada_1" xmlns="http://www.w3.org/2000/svg" xmlns:xlink="http://www.w3.org/1999/xlink" x="0px" y="0px"
	 viewBox="0 0 100 100" style="enable-background:new 0 0 100 100;" xml:space="preserve">
<style type="text/css">
	.st0{fill:#E83C69;}
	.st1{fill:#FFFFFF;}
</style>
<path class="st0" d="M100,50c0,27.6-22.4,50-50,50S0,77.6,0,50S22.4,0,50,0c0,0,0,0,0,0C77.6,0,100,22.4,100,50z"/>
<g transform="translate(25.665 13.742)">
	<path class="st1" d="M7.9,66.8l-2.4-9.1L6.1,30l4.3,22.9l1.8,1.7l-2.4,5.3l4.9,4.3l-3.7,2.7h7.3l2.4-2.7v-8.8H28v8.8l2.4,2.7h7.3
		l-3.7-2.7l4.9-4.3l-2.4-5.3l1.8-1.7L42.6,30l0.6,27.7l-2.4,9.1h1.8c0,0.9,2.1,1.6,4.9,1.6s4.9-0.7,4.9-1.6L53.6,30l-3.7-1.9h3.7
		l-3.7-9.5l-7.3-4.1l-9.7-1.3l1.8-3.7l-1.8-1.4l-0.6-2.7l-0.6-2.6l-1.8-3.7l-3.7-1.8h-3.7l-3.7,1.8L17,2.8l-0.6,2.6l-0.6,2.7L14,9.5
		l1.8,3.7l-9.7,1.3l-7.3,4.1l-3.7,9.5h3.7L-4.9,30c0,0,1.2,36.8,1.2,36.8c0,0.9,2.1,1.6,4.9,1.6s4.9-0.7,4.9-1.6"/>
</g>
</svg>
