<svg xmlns="http://www.w3.org/2000/svg" width="99.048" height="105.772" viewBox="0 0 99.048 105.772"><path d="M35.371,86.913C11.535,94.064,11.535,74.995,2,72.611m66.743,28.6V82.765a16.066,16.066,0,0,0-4.481-12.443c14.969-1.669,30.7-7.342,30.7-33.371a25.931,25.931,0,0,0-7.148-17.874A24.17,24.17,0,0,0,87.383,1.1S81.757-.568,68.743,8.157a63.787,63.787,0,0,0-33.371,0C22.356-.568,16.731,1.1,16.731,1.1A24.17,24.17,0,0,0,16.3,19.074a25.934,25.934,0,0,0-7.151,18.02c0,25.839,15.732,31.512,30.7,33.371a16.066,16.066,0,0,0-4.481,12.3v18.45" transform="translate(1.335 1.808)" fill="none" stroke="#000" stroke-linecap="round" stroke-linejoin="round" stroke-width="5.5"/></svg>