<svg xmlns="http://www.w3.org/2000/svg" width="165" height="165" viewBox="0 0 165 165">
  <g id="Lamp" transform="translate(-649.007 -372.862)">
    <path id="Caminho_20" data-name="Caminho 20" d="M80.5,0A80.5,80.5,0,1,1,0,80.5,80.5,80.5,0,0,1,80.5,0Z" transform="translate(651.007 374.862)" fill="none" stroke="#fff" stroke-width="4"/>
    <g id="Grupo_6" data-name="Grupo 6">
      <path id="Caminho_18" data-name="Caminho 18" d="M754.829,416.4a33.515,33.515,0,0,0-46.717-.027,31.094,31.094,0,0,0-9.823,23.03,32.667,32.667,0,0,0,6.908,19.121,114.415,114.415,0,0,1,6.64,9.6A33.892,33.892,0,0,1,715.8,485.2v.153a1.678,1.678,0,0,0,1.678,1.678h28.082a1.678,1.678,0,0,0,1.678-1.678v-.3a33.85,33.85,0,0,1,3.709-16.958c.374-.65,1.874-2.856,6.865-9.636a32.663,32.663,0,0,0,6.913-19.128l0-.044A31.061,31.061,0,0,0,754.829,416.4Zm-29.337,36.233h-3.006a3.007,3.007,0,1,1,3.006-3.007Zm9.021,31.041H728.5V455.644h6.012Zm20.623-27.245c-4.16,5.65-6.482,8.916-7.134,10.053a37.223,37.223,0,0,0-4.154,17.192h-6.326V455.644h3.006a6.015,6.015,0,1,0-6.015-6.015v3.007H728.5v-3.007a6.015,6.015,0,1,0-6.015,6.015h3.006v28.033h-6.318a37.3,37.3,0,0,0-4.428-17.227,117.7,117.7,0,0,0-6.895-9.978,29.322,29.322,0,0,1-6.207-17.139,27.743,27.743,0,0,1,8.79-20.535,30.163,30.163,0,0,1,42.079.034,27.722,27.722,0,0,1,8.857,20.412A29.37,29.37,0,0,1,755.136,456.432Zm-17.614-3.8v-3.007a3.008,3.008,0,1,1,3.006,3.007Z" fill="#fff"/>
      <rect id="Retângulo_22" data-name="Retângulo 22" width="30.969" height="3.356" rx="1.377" transform="translate(716.022 489.271)" fill="#fff"/>
      <rect id="Retângulo_23" data-name="Retângulo 23" width="27.969" height="3.356" rx="1.377" transform="translate(717.522 494.865)" fill="#fff"/>
      <rect id="Retângulo_24" data-name="Retângulo 24" width="22.375" height="3.356" rx="1.287" transform="translate(720.319 500.458)" fill="#fff"/>
    </g>
  </g>
</svg>
