<svg xmlns="http://www.w3.org/2000/svg" width="85.494" height="103.629" viewBox="0 0 85.494 103.629"><g transform="translate(0 0)"><path d="M810.262,1251.64l-42.747,25.907v51.815l42.747,25.907,42.747-25.907v-51.815Zm25.068,51.338a8.91,8.91,0,0,1-2.245,3.21,10.876,10.876,0,0,1-3.5,2.087c-.313.111-.631.212-.95.316s-.632.153-.951.226a14.647,14.647,0,0,1-1.9.285c-.319.04-.623.042-.932.051s-.615.009-.921.012-.6-.026-.9-.043-.593-.04-.886-.069a22.145,22.145,0,0,1-3.323-.623,17.186,17.186,0,0,1-1.663-.5c.051.053.1.106.152.158.637.7,1.313,1.363,1.972,2.04.342.316.672.659,1.009.971.171.151.345.3.511.454a5.709,5.709,0,0,0,.508.443c.341.271.676.574,1.015.8.169.118.336.254.5.366s.335.2.5.315a9.486,9.486,0,0,0,1.911.913,6.094,6.094,0,0,0,1.884.286,7.185,7.185,0,0,0,1.965-.313,11.586,11.586,0,0,0,1.807-.74,13.966,13.966,0,0,0,1.423-.826,9.909,9.909,0,0,0,.9-.659,2.308,2.308,0,0,0,.219-.206l.071-.084.021.107a1.528,1.528,0,0,1,.021.331,5.123,5.123,0,0,1-.195,1.221,8.086,8.086,0,0,1-.716,1.791,9.2,9.2,0,0,1-1.54,2.086,8.635,8.635,0,0,1-2.736,1.84,8.911,8.911,0,0,1-3.859.674,10.871,10.871,0,0,1-3.949-1.009c-.3-.143-.6-.3-.895-.45s-.555-.34-.832-.515a14.6,14.6,0,0,1-1.54-1.143c-.253-.2-.47-.412-.693-.624s-.44-.43-.659-.644-.4-.444-.6-.668-.39-.448-.577-.677a22.163,22.163,0,0,1-1.9-2.794c-.2-.324-.373-.651-.541-.976-.011.448-.02.9-.013,1.357-.025.944,0,1.893,0,2.838.027.465.027.94.053,1.4.018.227.041.454.053.681a5.763,5.763,0,0,0,.059.672c.057.432.087.882.175,1.281.041.2.066.416.107.612s.1.379.14.572a9.461,9.461,0,0,0,.742,1.984,6.088,6.088,0,0,0,1.158,1.513,7.182,7.182,0,0,0,1.632,1.138,11.551,11.551,0,0,0,1.815.72,13.873,13.873,0,0,0,1.6.392,9.835,9.835,0,0,0,1.1.15,2.346,2.346,0,0,0,.3,0l.11-.011-.059.091a1.539,1.539,0,0,1-.215.253,5.117,5.117,0,0,1-.987.744,8.069,8.069,0,0,1-1.758.792,9.194,9.194,0,0,1-2.557.434,8.638,8.638,0,0,1-3.247-.573,8.912,8.912,0,0,1-3.246-2.193,10.866,10.866,0,0,1-2.143-3.467c-.116-.311-.223-.628-.332-.945s-.164-.63-.242-.948a14.64,14.64,0,0,1-.316-1.892c-.045-.318-.052-.623-.066-.931s-.019-.615-.028-.921.017-.6.029-.9.031-.594.054-.888a22.1,22.1,0,0,1,.569-3.332,25.225,25.225,0,0,1,.917-2.954c.033-.085.068-.165.1-.248l-.677.554c-.672.589-1.419,1.148-2.124,1.768-.735.593-1.442,1.227-2.159,1.842-.336.322-.7.63-1.032.947-.161.161-.319.325-.485.482a5.777,5.777,0,0,0-.474.48c-.292.324-.615.638-.862.964-.128.162-.275.319-.4.478s-.224.322-.345.478a9.454,9.454,0,0,0-1.03,1.851,6.092,6.092,0,0,0-.4,1.863,7.189,7.189,0,0,0,.19,1.98,11.572,11.572,0,0,0,.627,1.849,13.947,13.947,0,0,0,.737,1.471,9.717,9.717,0,0,0,.6.939,2.336,2.336,0,0,0,.192.232l.08.076-.108.015a1.533,1.533,0,0,1-.331,0,5.121,5.121,0,0,1-1.207-.27,8.08,8.08,0,0,1-1.742-.826,9.2,9.2,0,0,1-1.987-1.667,8.635,8.635,0,0,1-1.667-2.845,8.912,8.912,0,0,1-.432-3.893,10.87,10.87,0,0,1,1.253-3.879c.161-.29.334-.576.5-.865s.373-.532.565-.8a14.59,14.59,0,0,1,1.237-1.466c.213-.24.441-.444.666-.653s.456-.413.684-.618.468-.376.7-.562.472-.361.711-.534a22.076,22.076,0,0,1,2.907-1.725,25.162,25.162,0,0,1,2.844-1.215c.174-.06.345-.115.516-.17-.58,0-1.181-.017-1.8-.033-.893.009-1.825-.053-2.764-.042-.944-.029-1.893-.009-2.838-.009-.465.025-.94.022-1.4.046-.227.017-.454.039-.682.05a5.633,5.633,0,0,0-.672.056c-.433.055-.883.083-1.281.169-.2.04-.417.063-.612.1s-.38.1-.573.138a9.453,9.453,0,0,0-1.987.733,6.088,6.088,0,0,0-1.519,1.151,7.187,7.187,0,0,0-1.145,1.626,11.565,11.565,0,0,0-.729,1.811,13.786,13.786,0,0,0-.4,1.6,9.742,9.742,0,0,0-.155,1.1,2.292,2.292,0,0,0-.005.3l.011.11-.091-.059a1.5,1.5,0,0,1-.252-.216,5.12,5.12,0,0,1-.739-.991,8.079,8.079,0,0,1-.784-1.762,9.193,9.193,0,0,1-.422-2.559,8.632,8.632,0,0,1,.588-3.244,8.912,8.912,0,0,1,2.208-3.236,10.873,10.873,0,0,1,3.477-2.127c.311-.115.629-.22.946-.328s.63-.161.949-.237a14.588,14.588,0,0,1,1.893-.307c.318-.044.623-.049.931-.062s.615-.016.921-.024.6.02.9.033.593.033.887.059a22.155,22.155,0,0,1,3.329.584,25.2,25.2,0,0,1,2.95.931c.908.359,1.742.752,2.5,1.127l.06.033q-.35-.354-.708-.723c-.646-.617-1.269-1.313-1.949-1.96-.655-.68-1.349-1.328-2.025-1.989-.35-.306-.689-.64-1.034-.944-.175-.146-.352-.289-.523-.441a5.679,5.679,0,0,0-.52-.429c-.348-.263-.69-.557-1.036-.774-.172-.113-.342-.245-.511-.353s-.34-.2-.506-.3a9.432,9.432,0,0,0-1.934-.864,6.082,6.082,0,0,0-1.89-.236,7.178,7.178,0,0,0-1.956.364,11.546,11.546,0,0,0-1.787.787,13.852,13.852,0,0,0-1.4.864,9.762,9.762,0,0,0-.882.682,2.3,2.3,0,0,0-.214.212l-.069.086-.024-.106a1.534,1.534,0,0,1-.03-.33,5.128,5.128,0,0,1,.163-1.226,8.087,8.087,0,0,1,.67-1.808,9.21,9.21,0,0,1,1.485-2.126,8.633,8.633,0,0,1,2.687-1.911,8.907,8.907,0,0,1,3.84-.774,10.869,10.869,0,0,1,3.974.906c.3.135.6.282.906.426s.563.325.845.493a14.585,14.585,0,0,1,1.569,1.1c.258.191.481.4.71.605s.451.418.676.627.416.433.621.652.4.438.594.662a22.163,22.163,0,0,1,1.975,2.743,21.815,21.815,0,0,1,1.278,2.351c0-.458,0-.922-.023-1.386,0-.945-.049-1.892-.078-2.837-.039-.464-.051-.94-.09-1.4-.024-.227-.053-.453-.071-.68a5.7,5.7,0,0,0-.076-.67c-.068-.431-.111-.88-.209-1.275-.046-.2-.076-.415-.123-.609s-.11-.377-.155-.569a9.453,9.453,0,0,0-.794-1.964,6.083,6.083,0,0,0-1.2-1.482,7.173,7.173,0,0,0-1.661-1.1,11.59,11.59,0,0,0-1.833-.673,13.843,13.843,0,0,0-1.608-.35,9.807,9.807,0,0,0-1.108-.121,2.322,2.322,0,0,0-.3,0l-.109.014.056-.093a1.536,1.536,0,0,1,.208-.258,5.139,5.139,0,0,1,.968-.77,8.1,8.1,0,0,1,1.737-.837,9.2,9.2,0,0,1,2.544-.5,8.644,8.644,0,0,1,3.261.488,8.912,8.912,0,0,1,3.3,2.107,10.863,10.863,0,0,1,2.233,3.41c.125.308.239.622.357.936s.18.625.267.941a14.587,14.587,0,0,1,.365,1.883c.054.317.068.621.091.929s.035.614.052.92,0,.6,0,.9-.016.594-.031.889a22.141,22.141,0,0,1-.482,3.346,17.787,17.787,0,0,1-.475,1.83c.463-.415.942-.831,1.4-1.275.708-.626,1.384-1.291,2.073-1.939.321-.337.669-.661.987-.993.154-.168.3-.34.462-.5a5.789,5.789,0,0,0,.451-.5c.277-.337.585-.666.816-1,.12-.167.26-.331.374-.5s.209-.332.323-.493a9.478,9.478,0,0,0,.944-1.9,6.078,6.078,0,0,0,.316-1.879,7.164,7.164,0,0,0-.281-1.969,11.547,11.547,0,0,0-.711-1.819,13.869,13.869,0,0,0-.8-1.436,9.841,9.841,0,0,0-.644-.91,2.357,2.357,0,0,0-.2-.223l-.083-.072.107-.019a1.52,1.52,0,0,1,.331-.015,5.1,5.1,0,0,1,1.218.214,8.081,8.081,0,0,1,1.779.745,9.183,9.183,0,0,1,2.061,1.574,8.636,8.636,0,0,1,1.8,2.765,8.91,8.91,0,0,1,.611,3.869,10.878,10.878,0,0,1-1.073,3.933c-.148.3-.307.591-.465.887s-.348.549-.528.823a14.575,14.575,0,0,1-1.168,1.521c-.2.25-.42.463-.635.683s-.437.433-.655.649-.451.4-.678.593-.455.382-.686.566a22.134,22.134,0,0,1-2.825,1.857,25.236,25.236,0,0,1-2.786,1.344c-.3.121-.6.23-.9.336l.857.03c.893,0,1.824.074,2.763.074.944.04,1.893.031,2.838.042.465-.019.941-.012,1.4-.031.227-.014.455-.033.682-.042a5.731,5.731,0,0,0,.672-.048c.433-.05.884-.073,1.283-.155.2-.037.417-.058.613-.1s.381-.094.575-.131a9.444,9.444,0,0,0,2-.71,6.069,6.069,0,0,0,1.531-1.133,7.17,7.17,0,0,0,1.164-1.613,11.559,11.559,0,0,0,.75-1.8,13.821,13.821,0,0,0,.418-1.592,9.779,9.779,0,0,0,.168-1.1,2.371,2.371,0,0,0,.009-.3l-.01-.109.091.06a1.542,1.542,0,0,1,.249.219,5.118,5.118,0,0,1,.728,1,8.078,8.078,0,0,1,.763,1.771,9.194,9.194,0,0,1,.392,2.563A8.635,8.635,0,0,1,835.33,1302.978Z" transform="translate(-767.515 -1251.64)" fill="#1688c6"/></g></svg>