<svg xmlns="http://www.w3.org/2000/svg" width="212.654" height="250" viewBox="0 0 212.654 250"><path d="M612.9,266.378l-93.728-56.2a12.6,12.6,0,0,0-12.956,0l-93.729,56.2a12.6,12.6,0,0,0-6.121,10.805v112.4a12.6,12.6,0,0,0,6.121,10.805l93.729,56.2a12.595,12.595,0,0,0,12.956,0l93.728-56.2a12.6,12.6,0,0,0,6.12-10.805v-112.4A12.6,12.6,0,0,0,612.9,266.378ZM590.661,374.6a9.237,9.237,0,0,1-4.489,7.924L517.44,423.734a9.239,9.239,0,0,1-9.5,0L439.2,382.521a9.24,9.24,0,0,1-4.489-7.924V292.169a9.241,9.241,0,0,1,4.489-7.924l68.735-41.214a9.237,9.237,0,0,1,9.5,0l68.733,41.214a9.239,9.239,0,0,1,4.489,7.924Z" transform="translate(-406.361 -208.383)" fill="#fff"/></svg>